<mxfile host="Electron" agent="Mozilla/5.0 (Windows NT 10.0; Win64; x64) AppleWebKit/537.36 (KHTML, like Gecko) draw.io/25.0.2 Chrome/128.0.6613.186 Electron/32.2.5 Safari/537.36" version="25.0.2" pages="4">
  <diagram id="R5J_H3_nveJhbDEPPa7U" name="Menu Utama">
    <mxGraphModel dx="1615" dy="1032" grid="1" gridSize="10" guides="1" tooltips="1" connect="1" arrows="1" fold="1" page="1" pageScale="1" pageWidth="827" pageHeight="1169" math="0" shadow="0">
      <root>
        <mxCell id="0" />
        <mxCell id="1" parent="0" />
        <mxCell id="dm3T7YGHRtCTMRjQ782a-1" value="" style="edgeStyle=orthogonalEdgeStyle;rounded=0;orthogonalLoop=1;jettySize=auto;html=1;" parent="1" source="dm3T7YGHRtCTMRjQ782a-2" target="dm3T7YGHRtCTMRjQ782a-38" edge="1">
          <mxGeometry relative="1" as="geometry" />
        </mxCell>
        <mxCell id="dm3T7YGHRtCTMRjQ782a-2" value="&lt;font style=&quot;font-size: 14px;&quot;&gt;START&lt;/font&gt;" style="strokeWidth=2;html=1;shape=mxgraph.flowchart.terminator;whiteSpace=wrap;" parent="1" vertex="1">
          <mxGeometry x="450" y="150" width="100" height="60" as="geometry" />
        </mxCell>
        <mxCell id="dm3T7YGHRtCTMRjQ782a-3" value="" style="edgeStyle=orthogonalEdgeStyle;rounded=0;orthogonalLoop=1;jettySize=auto;html=1;" parent="1" source="dm3T7YGHRtCTMRjQ782a-4" target="dm3T7YGHRtCTMRjQ782a-7" edge="1">
          <mxGeometry relative="1" as="geometry" />
        </mxCell>
        <mxCell id="dm3T7YGHRtCTMRjQ782a-4" value="LOGIN = 0" style="rounded=1;whiteSpace=wrap;html=1;absoluteArcSize=1;arcSize=14;strokeWidth=2;fontStyle=1" parent="1" vertex="1">
          <mxGeometry x="900" y="600" width="100" height="40" as="geometry" />
        </mxCell>
        <mxCell id="dm3T7YGHRtCTMRjQ782a-5" value="" style="edgeStyle=orthogonalEdgeStyle;rounded=0;orthogonalLoop=1;jettySize=auto;html=1;" parent="1" source="dm3T7YGHRtCTMRjQ782a-7" target="dm3T7YGHRtCTMRjQ782a-9" edge="1">
          <mxGeometry relative="1" as="geometry" />
        </mxCell>
        <mxCell id="dm3T7YGHRtCTMRjQ782a-6" value="&lt;b&gt;YES&lt;/b&gt;" style="edgeLabel;html=1;align=center;verticalAlign=middle;resizable=0;points=[];" parent="dm3T7YGHRtCTMRjQ782a-5" vertex="1" connectable="0">
          <mxGeometry x="-0.4908" y="2" relative="1" as="geometry">
            <mxPoint as="offset" />
          </mxGeometry>
        </mxCell>
        <mxCell id="dm3T7YGHRtCTMRjQ782a-7" value="LOGIN &amp;lt; 3" style="strokeWidth=2;html=1;shape=mxgraph.flowchart.decision;whiteSpace=wrap;fontStyle=1" parent="1" vertex="1">
          <mxGeometry x="900" y="670" width="100" height="60" as="geometry" />
        </mxCell>
        <mxCell id="dm3T7YGHRtCTMRjQ782a-8" value="" style="edgeStyle=orthogonalEdgeStyle;rounded=0;orthogonalLoop=1;jettySize=auto;html=1;" parent="1" source="dm3T7YGHRtCTMRjQ782a-9" target="dm3T7YGHRtCTMRjQ782a-11" edge="1">
          <mxGeometry relative="1" as="geometry" />
        </mxCell>
        <mxCell id="dm3T7YGHRtCTMRjQ782a-9" value="&quot;Masukkan Username:&amp;nbsp; &quot;" style="shape=parallelogram;html=1;strokeWidth=2;perimeter=parallelogramPerimeter;whiteSpace=wrap;rounded=1;arcSize=12;size=0.23;fontStyle=1" parent="1" vertex="1">
          <mxGeometry x="856" y="770" width="190" height="30" as="geometry" />
        </mxCell>
        <mxCell id="dm3T7YGHRtCTMRjQ782a-10" value="" style="edgeStyle=orthogonalEdgeStyle;rounded=0;orthogonalLoop=1;jettySize=auto;html=1;" parent="1" source="dm3T7YGHRtCTMRjQ782a-11" target="dm3T7YGHRtCTMRjQ782a-16" edge="1">
          <mxGeometry relative="1" as="geometry" />
        </mxCell>
        <mxCell id="dm3T7YGHRtCTMRjQ782a-11" value="&quot;Masukkan Password: &quot;" style="shape=parallelogram;html=1;strokeWidth=2;perimeter=parallelogramPerimeter;whiteSpace=wrap;rounded=1;arcSize=12;size=0.23;fontStyle=1" parent="1" vertex="1">
          <mxGeometry x="856" y="830" width="190" height="30" as="geometry" />
        </mxCell>
        <mxCell id="dm3T7YGHRtCTMRjQ782a-12" style="edgeStyle=orthogonalEdgeStyle;rounded=0;orthogonalLoop=1;jettySize=auto;html=1;exitX=0;exitY=0.5;exitDx=0;exitDy=0;exitPerimeter=0;" parent="1" source="dm3T7YGHRtCTMRjQ782a-16" target="dm3T7YGHRtCTMRjQ782a-18" edge="1">
          <mxGeometry relative="1" as="geometry">
            <Array as="points">
              <mxPoint x="700" y="945" />
            </Array>
          </mxGeometry>
        </mxCell>
        <mxCell id="dm3T7YGHRtCTMRjQ782a-13" value="&lt;b&gt;YES&lt;/b&gt;" style="edgeLabel;html=1;align=center;verticalAlign=middle;resizable=0;points=[];" parent="dm3T7YGHRtCTMRjQ782a-12" vertex="1" connectable="0">
          <mxGeometry x="-0.3569" y="-1" relative="1" as="geometry">
            <mxPoint as="offset" />
          </mxGeometry>
        </mxCell>
        <mxCell id="dm3T7YGHRtCTMRjQ782a-14" style="edgeStyle=orthogonalEdgeStyle;rounded=0;orthogonalLoop=1;jettySize=auto;html=1;entryX=0.5;entryY=0;entryDx=0;entryDy=0;" parent="1" source="dm3T7YGHRtCTMRjQ782a-16" target="dm3T7YGHRtCTMRjQ782a-21" edge="1">
          <mxGeometry relative="1" as="geometry" />
        </mxCell>
        <mxCell id="dm3T7YGHRtCTMRjQ782a-15" value="&lt;b&gt;NO&lt;/b&gt;" style="edgeLabel;html=1;align=center;verticalAlign=middle;resizable=0;points=[];" parent="dm3T7YGHRtCTMRjQ782a-14" vertex="1" connectable="0">
          <mxGeometry x="-0.3209" y="-1" relative="1" as="geometry">
            <mxPoint as="offset" />
          </mxGeometry>
        </mxCell>
        <mxCell id="dm3T7YGHRtCTMRjQ782a-16" value="If inputUsername == user.username&amp;nbsp;&lt;div&gt;&amp;amp;&amp;amp; inputPassword== user.password&lt;/div&gt;" style="strokeWidth=2;html=1;shape=mxgraph.flowchart.decision;whiteSpace=wrap;fontStyle=1" parent="1" vertex="1">
          <mxGeometry x="817.5" y="890" width="265" height="110" as="geometry" />
        </mxCell>
        <mxCell id="dm3T7YGHRtCTMRjQ782a-77" value="" style="edgeStyle=orthogonalEdgeStyle;rounded=0;orthogonalLoop=1;jettySize=auto;html=1;" parent="1" source="dm3T7YGHRtCTMRjQ782a-18" target="dm3T7YGHRtCTMRjQ782a-76" edge="1">
          <mxGeometry relative="1" as="geometry" />
        </mxCell>
        <mxCell id="dm3T7YGHRtCTMRjQ782a-18" value="&quot;Login berhasil!&amp;nbsp;&lt;div&gt;selamat datang &quot; &amp;lt;&amp;lt; username&amp;lt;&amp;lt;&lt;/div&gt;" style="shape=parallelogram;html=1;strokeWidth=2;perimeter=parallelogramPerimeter;whiteSpace=wrap;rounded=1;arcSize=12;size=0.23;" parent="1" vertex="1">
          <mxGeometry x="580" y="1010" width="240" height="50" as="geometry" />
        </mxCell>
        <mxCell id="dm3T7YGHRtCTMRjQ782a-19" value="A" style="verticalLabelPosition=middle;verticalAlign=middle;html=1;shape=offPageConnector;rounded=0;size=0.5;labelPosition=center;align=center;fontStyle=1" parent="1" vertex="1">
          <mxGeometry x="798" y="1135" width="60" height="60" as="geometry" />
        </mxCell>
        <mxCell id="dm3T7YGHRtCTMRjQ782a-20" value="" style="edgeStyle=orthogonalEdgeStyle;rounded=0;orthogonalLoop=1;jettySize=auto;html=1;" parent="1" source="dm3T7YGHRtCTMRjQ782a-21" target="dm3T7YGHRtCTMRjQ782a-26" edge="1">
          <mxGeometry relative="1" as="geometry" />
        </mxCell>
        <mxCell id="dm3T7YGHRtCTMRjQ782a-21" value="LOGIN ++" style="rounded=1;whiteSpace=wrap;html=1;absoluteArcSize=1;arcSize=14;strokeWidth=2;fontStyle=1" parent="1" vertex="1">
          <mxGeometry x="1100" y="970" width="100" height="40" as="geometry" />
        </mxCell>
        <mxCell id="dm3T7YGHRtCTMRjQ782a-22" style="edgeStyle=orthogonalEdgeStyle;rounded=0;orthogonalLoop=1;jettySize=auto;html=1;" parent="1" source="dm3T7YGHRtCTMRjQ782a-26" target="dm3T7YGHRtCTMRjQ782a-28" edge="1">
          <mxGeometry relative="1" as="geometry">
            <Array as="points">
              <mxPoint x="1000" y="1070" />
            </Array>
          </mxGeometry>
        </mxCell>
        <mxCell id="dm3T7YGHRtCTMRjQ782a-23" value="YES" style="edgeLabel;html=1;align=center;verticalAlign=middle;resizable=0;points=[];fontStyle=1" parent="dm3T7YGHRtCTMRjQ782a-22" vertex="1" connectable="0">
          <mxGeometry x="-0.345" y="-1" relative="1" as="geometry">
            <mxPoint as="offset" />
          </mxGeometry>
        </mxCell>
        <mxCell id="dm3T7YGHRtCTMRjQ782a-24" value="&lt;b&gt;NO&lt;/b&gt;" style="edgeStyle=orthogonalEdgeStyle;rounded=0;orthogonalLoop=1;jettySize=auto;html=1;" parent="1" source="dm3T7YGHRtCTMRjQ782a-26" target="dm3T7YGHRtCTMRjQ782a-30" edge="1">
          <mxGeometry relative="1" as="geometry">
            <mxPoint x="1310" y="1170" as="targetPoint" />
            <Array as="points">
              <mxPoint x="1314" y="1070" />
            </Array>
          </mxGeometry>
        </mxCell>
        <mxCell id="dm3T7YGHRtCTMRjQ782a-25" value="Y" style="edgeLabel;html=1;align=center;verticalAlign=middle;resizable=0;points=[];fontStyle=1" parent="dm3T7YGHRtCTMRjQ782a-24" vertex="1" connectable="0">
          <mxGeometry x="-0.3647" y="-1" relative="1" as="geometry">
            <mxPoint as="offset" />
          </mxGeometry>
        </mxCell>
        <mxCell id="dm3T7YGHRtCTMRjQ782a-26" value="LOGIN == 3" style="strokeWidth=2;html=1;shape=mxgraph.flowchart.decision;whiteSpace=wrap;fontStyle=1" parent="1" vertex="1">
          <mxGeometry x="1100" y="1040" width="100" height="60" as="geometry" />
        </mxCell>
        <mxCell id="dm3T7YGHRtCTMRjQ782a-27" value="" style="edgeStyle=orthogonalEdgeStyle;rounded=0;orthogonalLoop=1;jettySize=auto;html=1;" parent="1" source="dm3T7YGHRtCTMRjQ782a-28" target="dm3T7YGHRtCTMRjQ782a-31" edge="1">
          <mxGeometry relative="1" as="geometry" />
        </mxCell>
        <mxCell id="dm3T7YGHRtCTMRjQ782a-28" value="&quot;Anda sudah mencoba 3 kali,&amp;nbsp;&lt;div&gt;Program berhenti.&quot;&lt;/div&gt;" style="shape=parallelogram;html=1;strokeWidth=2;perimeter=parallelogramPerimeter;whiteSpace=wrap;rounded=1;arcSize=12;size=0.23;fontStyle=1" parent="1" vertex="1">
          <mxGeometry x="890" y="1140" width="240" height="50" as="geometry" />
        </mxCell>
        <mxCell id="dm3T7YGHRtCTMRjQ782a-29" style="edgeStyle=orthogonalEdgeStyle;rounded=0;orthogonalLoop=1;jettySize=auto;html=1;entryX=1;entryY=0.5;entryDx=0;entryDy=0;entryPerimeter=0;" parent="1" source="dm3T7YGHRtCTMRjQ782a-30" target="dm3T7YGHRtCTMRjQ782a-7" edge="1">
          <mxGeometry relative="1" as="geometry">
            <mxPoint x="1450" y="695.2000122070312" as="targetPoint" />
            <Array as="points">
              <mxPoint x="1451" y="1155" />
              <mxPoint x="1451" y="700" />
            </Array>
          </mxGeometry>
        </mxCell>
        <mxCell id="dm3T7YGHRtCTMRjQ782a-30" value="&quot;LOGIN GAGAL, Nama atau&lt;div&gt;NIM salah. &quot;&lt;/div&gt;" style="shape=parallelogram;html=1;strokeWidth=2;perimeter=parallelogramPerimeter;whiteSpace=wrap;rounded=1;arcSize=12;size=0.23;fontStyle=1" parent="1" vertex="1">
          <mxGeometry x="1180" y="1130" width="240" height="50" as="geometry" />
        </mxCell>
        <mxCell id="dm3T7YGHRtCTMRjQ782a-31" value="&lt;span style=&quot;font-size: 14px;&quot;&gt;END&lt;/span&gt;" style="strokeWidth=2;html=1;shape=mxgraph.flowchart.terminator;whiteSpace=wrap;fontStyle=1" parent="1" vertex="1">
          <mxGeometry x="960" y="1320" width="100" height="60" as="geometry" />
        </mxCell>
        <mxCell id="dm3T7YGHRtCTMRjQ782a-32" value="" style="endArrow=classic;html=1;rounded=0;" parent="1" edge="1">
          <mxGeometry width="50" height="50" relative="1" as="geometry">
            <mxPoint x="864" y="836" as="sourcePoint" />
            <mxPoint x="906" y="836" as="targetPoint" />
          </mxGeometry>
        </mxCell>
        <mxCell id="dm3T7YGHRtCTMRjQ782a-33" value="" style="endArrow=classic;html=1;rounded=0;" parent="1" edge="1">
          <mxGeometry width="50" height="50" relative="1" as="geometry">
            <mxPoint x="863" y="774" as="sourcePoint" />
            <mxPoint x="905" y="774" as="targetPoint" />
          </mxGeometry>
        </mxCell>
        <mxCell id="dm3T7YGHRtCTMRjQ782a-34" value="" style="endArrow=classic;html=1;rounded=0;" parent="1" edge="1">
          <mxGeometry width="50" height="50" relative="1" as="geometry">
            <mxPoint x="1078" y="1180" as="sourcePoint" />
            <mxPoint x="1120" y="1180" as="targetPoint" />
          </mxGeometry>
        </mxCell>
        <mxCell id="dm3T7YGHRtCTMRjQ782a-35" value="" style="endArrow=classic;html=1;rounded=0;" parent="1" edge="1">
          <mxGeometry width="50" height="50" relative="1" as="geometry">
            <mxPoint x="1360" y="1170" as="sourcePoint" />
            <mxPoint x="1402" y="1170" as="targetPoint" />
          </mxGeometry>
        </mxCell>
        <mxCell id="dm3T7YGHRtCTMRjQ782a-36" value="" style="endArrow=classic;html=1;rounded=0;" parent="1" edge="1">
          <mxGeometry width="50" height="50" relative="1" as="geometry">
            <mxPoint x="760" y="1052" as="sourcePoint" />
            <mxPoint x="802" y="1052" as="targetPoint" />
          </mxGeometry>
        </mxCell>
        <mxCell id="dm3T7YGHRtCTMRjQ782a-37" value="&lt;font style=&quot;font-size: 24px;&quot;&gt;MENU UTAMA&lt;/font&gt;" style="text;html=1;align=center;verticalAlign=middle;whiteSpace=wrap;rounded=0;textShadow=1;labelBackgroundColor=#CCFFFF;" parent="1" vertex="1">
          <mxGeometry x="375" y="80" width="250" height="30" as="geometry" />
        </mxCell>
        <mxCell id="dm3T7YGHRtCTMRjQ782a-38" value="Menu utama&lt;div&gt;1.Registrasi&lt;/div&gt;&lt;div&gt;2.Login&lt;/div&gt;&lt;div&gt;3.keluar&lt;/div&gt;" style="shape=parallelogram;html=1;strokeWidth=2;perimeter=parallelogramPerimeter;whiteSpace=wrap;rounded=1;arcSize=12;size=0.23;fontStyle=1" parent="1" vertex="1">
          <mxGeometry x="370" y="240" width="260" height="70" as="geometry" />
        </mxCell>
        <mxCell id="dm3T7YGHRtCTMRjQ782a-39" style="edgeStyle=orthogonalEdgeStyle;rounded=0;orthogonalLoop=1;jettySize=auto;html=1;" parent="1" source="dm3T7YGHRtCTMRjQ782a-43" target="dm3T7YGHRtCTMRjQ782a-50" edge="1">
          <mxGeometry relative="1" as="geometry" />
        </mxCell>
        <mxCell id="dm3T7YGHRtCTMRjQ782a-40" value="&lt;b&gt;YES&lt;/b&gt;" style="edgeLabel;html=1;align=center;verticalAlign=middle;resizable=0;points=[];" parent="dm3T7YGHRtCTMRjQ782a-39" vertex="1" connectable="0">
          <mxGeometry x="-0.1923" y="-4" relative="1" as="geometry">
            <mxPoint as="offset" />
          </mxGeometry>
        </mxCell>
        <mxCell id="dm3T7YGHRtCTMRjQ782a-41" value="" style="edgeStyle=orthogonalEdgeStyle;rounded=0;orthogonalLoop=1;jettySize=auto;html=1;" parent="1" source="dm3T7YGHRtCTMRjQ782a-43" target="dm3T7YGHRtCTMRjQ782a-48" edge="1">
          <mxGeometry relative="1" as="geometry" />
        </mxCell>
        <mxCell id="dm3T7YGHRtCTMRjQ782a-42" value="&lt;b&gt;NO&lt;/b&gt;" style="edgeLabel;html=1;align=center;verticalAlign=middle;resizable=0;points=[];" parent="dm3T7YGHRtCTMRjQ782a-41" vertex="1" connectable="0">
          <mxGeometry x="-0.3982" y="3" relative="1" as="geometry">
            <mxPoint as="offset" />
          </mxGeometry>
        </mxCell>
        <mxCell id="dm3T7YGHRtCTMRjQ782a-43" value="if pilih == 1" style="strokeWidth=2;html=1;shape=mxgraph.flowchart.decision;whiteSpace=wrap;fontStyle=1" parent="1" vertex="1">
          <mxGeometry x="450" y="423" width="100" height="100" as="geometry" />
        </mxCell>
        <mxCell id="dm3T7YGHRtCTMRjQ782a-44" style="edgeStyle=orthogonalEdgeStyle;rounded=0;orthogonalLoop=1;jettySize=auto;html=1;entryX=0;entryY=0.5;entryDx=0;entryDy=0;" parent="1" source="dm3T7YGHRtCTMRjQ782a-48" target="dm3T7YGHRtCTMRjQ782a-4" edge="1">
          <mxGeometry relative="1" as="geometry" />
        </mxCell>
        <mxCell id="dm3T7YGHRtCTMRjQ782a-45" value="&lt;b&gt;YES&lt;/b&gt;" style="edgeLabel;html=1;align=center;verticalAlign=middle;resizable=0;points=[];" parent="dm3T7YGHRtCTMRjQ782a-44" vertex="1" connectable="0">
          <mxGeometry x="-0.5445" y="-1" relative="1" as="geometry">
            <mxPoint as="offset" />
          </mxGeometry>
        </mxCell>
        <mxCell id="dm3T7YGHRtCTMRjQ782a-46" style="edgeStyle=orthogonalEdgeStyle;rounded=0;orthogonalLoop=1;jettySize=auto;html=1;" parent="1" source="dm3T7YGHRtCTMRjQ782a-48" target="dm3T7YGHRtCTMRjQ782a-58" edge="1">
          <mxGeometry relative="1" as="geometry" />
        </mxCell>
        <mxCell id="dm3T7YGHRtCTMRjQ782a-47" value="&lt;b&gt;NO&lt;/b&gt;" style="edgeLabel;html=1;align=center;verticalAlign=middle;resizable=0;points=[];" parent="dm3T7YGHRtCTMRjQ782a-46" vertex="1" connectable="0">
          <mxGeometry x="-0.779" y="5" relative="1" as="geometry">
            <mxPoint as="offset" />
          </mxGeometry>
        </mxCell>
        <mxCell id="dm3T7YGHRtCTMRjQ782a-48" value="else if pilih == 2" style="strokeWidth=2;html=1;shape=mxgraph.flowchart.decision;whiteSpace=wrap;fontStyle=1" parent="1" vertex="1">
          <mxGeometry x="450" y="570" width="100" height="100" as="geometry" />
        </mxCell>
        <mxCell id="dm3T7YGHRtCTMRjQ782a-49" value="" style="edgeStyle=orthogonalEdgeStyle;rounded=0;orthogonalLoop=1;jettySize=auto;html=1;" parent="1" source="dm3T7YGHRtCTMRjQ782a-50" target="dm3T7YGHRtCTMRjQ782a-52" edge="1">
          <mxGeometry relative="1" as="geometry" />
        </mxCell>
        <mxCell id="dm3T7YGHRtCTMRjQ782a-50" value="&quot;Masukkan Username: &quot;" style="shape=parallelogram;html=1;strokeWidth=2;perimeter=parallelogramPerimeter;whiteSpace=wrap;rounded=1;arcSize=12;size=0.23;fontStyle=1" parent="1" vertex="1">
          <mxGeometry x="726" y="459" width="204" height="31" as="geometry" />
        </mxCell>
        <mxCell id="dm3T7YGHRtCTMRjQ782a-51" style="edgeStyle=orthogonalEdgeStyle;rounded=0;orthogonalLoop=1;jettySize=auto;html=1;" parent="1" source="dm3T7YGHRtCTMRjQ782a-52" target="dm3T7YGHRtCTMRjQ782a-71" edge="1">
          <mxGeometry relative="1" as="geometry" />
        </mxCell>
        <mxCell id="dm3T7YGHRtCTMRjQ782a-52" value="&quot;Masukkan Password: &quot;" style="shape=parallelogram;html=1;strokeWidth=2;perimeter=parallelogramPerimeter;whiteSpace=wrap;rounded=1;arcSize=12;size=0.23;fontStyle=1" parent="1" vertex="1">
          <mxGeometry x="726" y="520" width="204" height="29" as="geometry" />
        </mxCell>
        <mxCell id="dm3T7YGHRtCTMRjQ782a-53" value="" style="endArrow=classic;html=1;rounded=0;" parent="1" edge="1">
          <mxGeometry width="50" height="50" relative="1" as="geometry">
            <mxPoint x="726" y="465" as="sourcePoint" />
            <mxPoint x="768" y="465" as="targetPoint" />
          </mxGeometry>
        </mxCell>
        <mxCell id="dm3T7YGHRtCTMRjQ782a-54" value="" style="edgeStyle=orthogonalEdgeStyle;rounded=0;orthogonalLoop=1;jettySize=auto;html=1;" parent="1" source="dm3T7YGHRtCTMRjQ782a-58" target="dm3T7YGHRtCTMRjQ782a-60" edge="1">
          <mxGeometry relative="1" as="geometry" />
        </mxCell>
        <mxCell id="dm3T7YGHRtCTMRjQ782a-55" value="&lt;b&gt;NO&lt;/b&gt;" style="edgeLabel;html=1;align=center;verticalAlign=middle;resizable=0;points=[];" parent="dm3T7YGHRtCTMRjQ782a-54" vertex="1" connectable="0">
          <mxGeometry x="-0.0104" relative="1" as="geometry">
            <mxPoint as="offset" />
          </mxGeometry>
        </mxCell>
        <mxCell id="dm3T7YGHRtCTMRjQ782a-56" style="edgeStyle=orthogonalEdgeStyle;rounded=0;orthogonalLoop=1;jettySize=auto;html=1;entryX=0;entryY=0.5;entryDx=0;entryDy=0;" parent="1" source="dm3T7YGHRtCTMRjQ782a-58" target="dm3T7YGHRtCTMRjQ782a-62" edge="1">
          <mxGeometry relative="1" as="geometry" />
        </mxCell>
        <mxCell id="dm3T7YGHRtCTMRjQ782a-57" value="&lt;b&gt;YES&lt;/b&gt;" style="edgeLabel;html=1;align=center;verticalAlign=middle;resizable=0;points=[];" parent="dm3T7YGHRtCTMRjQ782a-56" vertex="1" connectable="0">
          <mxGeometry x="-0.215" relative="1" as="geometry">
            <mxPoint as="offset" />
          </mxGeometry>
        </mxCell>
        <mxCell id="dm3T7YGHRtCTMRjQ782a-58" value="else if pilih == 3" style="strokeWidth=2;html=1;shape=mxgraph.flowchart.decision;whiteSpace=wrap;fontStyle=1" parent="1" vertex="1">
          <mxGeometry x="450" y="1300" width="100" height="100" as="geometry" />
        </mxCell>
        <mxCell id="dm3T7YGHRtCTMRjQ782a-59" value="" style="edgeStyle=orthogonalEdgeStyle;rounded=0;orthogonalLoop=1;jettySize=auto;html=1;" parent="1" source="dm3T7YGHRtCTMRjQ782a-60" target="dm3T7YGHRtCTMRjQ782a-65" edge="1">
          <mxGeometry relative="1" as="geometry" />
        </mxCell>
        <mxCell id="dm3T7YGHRtCTMRjQ782a-60" value="else&amp;nbsp;" style="strokeWidth=2;html=1;shape=mxgraph.flowchart.decision;whiteSpace=wrap;fontStyle=1" parent="1" vertex="1">
          <mxGeometry x="450" y="1480" width="100" height="100" as="geometry" />
        </mxCell>
        <mxCell id="dm3T7YGHRtCTMRjQ782a-61" style="edgeStyle=orthogonalEdgeStyle;rounded=0;orthogonalLoop=1;jettySize=auto;html=1;entryX=0;entryY=0.5;entryDx=0;entryDy=0;entryPerimeter=0;" parent="1" source="dm3T7YGHRtCTMRjQ782a-62" target="dm3T7YGHRtCTMRjQ782a-31" edge="1">
          <mxGeometry relative="1" as="geometry">
            <mxPoint x="720" y="1390" as="targetPoint" />
            <Array as="points">
              <mxPoint x="940" y="1350" />
            </Array>
          </mxGeometry>
        </mxCell>
        <mxCell id="dm3T7YGHRtCTMRjQ782a-62" value="&quot;Terima Kasih!&quot;" style="shape=parallelogram;html=1;strokeWidth=2;perimeter=parallelogramPerimeter;whiteSpace=wrap;rounded=1;arcSize=12;size=0.23;fontStyle=1" parent="1" vertex="1">
          <mxGeometry x="596" y="1335" width="160" height="30" as="geometry" />
        </mxCell>
        <mxCell id="dm3T7YGHRtCTMRjQ782a-63" value="" style="endArrow=classic;html=1;rounded=0;" parent="1" edge="1">
          <mxGeometry width="50" height="50" relative="1" as="geometry">
            <mxPoint x="714" y="1356" as="sourcePoint" />
            <mxPoint x="756" y="1356" as="targetPoint" />
          </mxGeometry>
        </mxCell>
        <mxCell id="dm3T7YGHRtCTMRjQ782a-64" style="edgeStyle=orthogonalEdgeStyle;rounded=0;orthogonalLoop=1;jettySize=auto;html=1;" parent="1" source="dm3T7YGHRtCTMRjQ782a-65" target="dm3T7YGHRtCTMRjQ782a-38" edge="1">
          <mxGeometry relative="1" as="geometry">
            <mxPoint x="290" y="270" as="targetPoint" />
            <Array as="points">
              <mxPoint x="752" y="1680" />
              <mxPoint x="290" y="1680" />
              <mxPoint x="290" y="275" />
            </Array>
          </mxGeometry>
        </mxCell>
        <mxCell id="dm3T7YGHRtCTMRjQ782a-65" value="&quot;Pilihan tidak valid! silahkan pilih lagi." style="shape=parallelogram;html=1;strokeWidth=2;perimeter=parallelogramPerimeter;whiteSpace=wrap;rounded=1;arcSize=12;size=0.23;fontStyle=1" parent="1" vertex="1">
          <mxGeometry x="575" y="1507" width="344" height="46" as="geometry" />
        </mxCell>
        <mxCell id="dm3T7YGHRtCTMRjQ782a-66" value="" style="endArrow=classic;html=1;rounded=0;" parent="1" edge="1">
          <mxGeometry width="50" height="50" relative="1" as="geometry">
            <mxPoint x="842" y="1550" as="sourcePoint" />
            <mxPoint x="884" y="1550" as="targetPoint" />
          </mxGeometry>
        </mxCell>
        <mxCell id="dm3T7YGHRtCTMRjQ782a-67" value="" style="edgeStyle=orthogonalEdgeStyle;rounded=0;orthogonalLoop=1;jettySize=auto;html=1;" parent="1" source="dm3T7YGHRtCTMRjQ782a-68" target="dm3T7YGHRtCTMRjQ782a-43" edge="1">
          <mxGeometry relative="1" as="geometry" />
        </mxCell>
        <mxCell id="dm3T7YGHRtCTMRjQ782a-68" value="pilih menu (1/2/3):&amp;nbsp;" style="shape=parallelogram;html=1;strokeWidth=2;perimeter=parallelogramPerimeter;whiteSpace=wrap;rounded=1;arcSize=12;size=0.23;fontStyle=1" parent="1" vertex="1">
          <mxGeometry x="425" y="350" width="150" height="40" as="geometry" />
        </mxCell>
        <mxCell id="dm3T7YGHRtCTMRjQ782a-69" style="edgeStyle=orthogonalEdgeStyle;rounded=0;orthogonalLoop=1;jettySize=auto;html=1;entryX=0.5;entryY=0;entryDx=0;entryDy=0;" parent="1" source="dm3T7YGHRtCTMRjQ782a-38" target="dm3T7YGHRtCTMRjQ782a-68" edge="1">
          <mxGeometry relative="1" as="geometry" />
        </mxCell>
        <mxCell id="dm3T7YGHRtCTMRjQ782a-70" style="edgeStyle=orthogonalEdgeStyle;rounded=0;orthogonalLoop=1;jettySize=auto;html=1;" parent="1" source="dm3T7YGHRtCTMRjQ782a-71" target="dm3T7YGHRtCTMRjQ782a-38" edge="1">
          <mxGeometry relative="1" as="geometry">
            <mxPoint x="1250.0000000000005" y="270" as="targetPoint" />
            <Array as="points">
              <mxPoint x="1270" y="534" />
              <mxPoint x="1270" y="270" />
            </Array>
          </mxGeometry>
        </mxCell>
        <mxCell id="dm3T7YGHRtCTMRjQ782a-71" value="&quot;Registrasi berhasil!&amp;nbsp;&lt;div&gt;silahkan lanjut login.&lt;/div&gt;" style="shape=parallelogram;html=1;strokeWidth=2;perimeter=parallelogramPerimeter;whiteSpace=wrap;rounded=1;arcSize=12;size=0.23;fontStyle=1" parent="1" vertex="1">
          <mxGeometry x="950" y="509" width="240" height="50" as="geometry" />
        </mxCell>
        <mxCell id="dm3T7YGHRtCTMRjQ782a-72" value="" style="endArrow=classic;html=1;rounded=0;" parent="1" edge="1">
          <mxGeometry width="50" height="50" relative="1" as="geometry">
            <mxPoint x="1130" y="551" as="sourcePoint" />
            <mxPoint x="1172" y="551" as="targetPoint" />
          </mxGeometry>
        </mxCell>
        <mxCell id="dm3T7YGHRtCTMRjQ782a-73" value="" style="endArrow=classic;html=1;rounded=0;" parent="1" edge="1">
          <mxGeometry width="50" height="50" relative="1" as="geometry">
            <mxPoint x="730" y="535" as="sourcePoint" />
            <mxPoint x="772" y="535" as="targetPoint" />
          </mxGeometry>
        </mxCell>
        <mxCell id="dm3T7YGHRtCTMRjQ782a-74" value="" style="endArrow=classic;html=1;rounded=0;" parent="1" edge="1">
          <mxGeometry width="50" height="50" relative="1" as="geometry">
            <mxPoint x="400" y="360" as="sourcePoint" />
            <mxPoint x="470" y="360" as="targetPoint" />
            <Array as="points">
              <mxPoint x="420" y="360" />
              <mxPoint x="410" y="360" />
            </Array>
          </mxGeometry>
        </mxCell>
        <mxCell id="dm3T7YGHRtCTMRjQ782a-75" value="" style="endArrow=classic;html=1;rounded=0;" parent="1" edge="1">
          <mxGeometry width="50" height="50" relative="1" as="geometry">
            <mxPoint x="555" y="300" as="sourcePoint" />
            <mxPoint x="625" y="300" as="targetPoint" />
            <Array as="points">
              <mxPoint x="575" y="300" />
              <mxPoint x="565" y="300" />
            </Array>
          </mxGeometry>
        </mxCell>
        <mxCell id="dm3T7YGHRtCTMRjQ782a-78" value="" style="edgeStyle=orthogonalEdgeStyle;rounded=0;orthogonalLoop=1;jettySize=auto;html=1;" parent="1" source="dm3T7YGHRtCTMRjQ782a-76" target="dm3T7YGHRtCTMRjQ782a-19" edge="1">
          <mxGeometry relative="1" as="geometry" />
        </mxCell>
        <mxCell id="o8LNpb4AMjb7M9lEXD9h-2" value="" style="edgeStyle=orthogonalEdgeStyle;rounded=0;orthogonalLoop=1;jettySize=auto;html=1;" parent="1" source="dm3T7YGHRtCTMRjQ782a-76" target="o8LNpb4AMjb7M9lEXD9h-1" edge="1">
          <mxGeometry relative="1" as="geometry" />
        </mxCell>
        <mxCell id="dm3T7YGHRtCTMRjQ782a-76" value="if user.role == &quot;admin&quot;" style="strokeWidth=2;html=1;shape=mxgraph.flowchart.decision;whiteSpace=wrap;fontStyle=1" parent="1" vertex="1">
          <mxGeometry x="650" y="1130" width="100" height="70" as="geometry" />
        </mxCell>
        <mxCell id="o8LNpb4AMjb7M9lEXD9h-4" value="" style="edgeStyle=orthogonalEdgeStyle;rounded=0;orthogonalLoop=1;jettySize=auto;html=1;" parent="1" source="o8LNpb4AMjb7M9lEXD9h-1" target="o8LNpb4AMjb7M9lEXD9h-3" edge="1">
          <mxGeometry relative="1" as="geometry" />
        </mxCell>
        <mxCell id="o8LNpb4AMjb7M9lEXD9h-1" value="else&amp;nbsp;" style="strokeWidth=2;html=1;shape=mxgraph.flowchart.decision;whiteSpace=wrap;fontStyle=1" parent="1" vertex="1">
          <mxGeometry x="660" y="1240" width="80" height="60" as="geometry" />
        </mxCell>
        <mxCell id="o8LNpb4AMjb7M9lEXD9h-3" value="B" style="verticalLabelPosition=middle;verticalAlign=middle;html=1;shape=offPageConnector;rounded=0;size=0.5;labelPosition=center;align=center;fontStyle=1" parent="1" vertex="1">
          <mxGeometry x="798" y="1240" width="60" height="60" as="geometry" />
        </mxCell>
      </root>
    </mxGraphModel>
  </diagram>
  <diagram name="Menu Tiket Admin" id="aCUYDer8D8V_3P-I0jYG">
    <mxGraphModel dx="1400" dy="895" grid="1" gridSize="10" guides="1" tooltips="1" connect="1" arrows="1" fold="1" page="1" pageScale="1" pageWidth="827" pageHeight="1169" math="0" shadow="0">
      <root>
        <mxCell id="0" />
        <mxCell id="1" parent="0" />
        <mxCell id="gvDB-3mFa1OPKRQiVjzO-5" value="&lt;font style=&quot;font-size: 24px;&quot;&gt;MENU TIKET ADMIN&lt;/font&gt;" style="text;html=1;align=center;verticalAlign=middle;whiteSpace=wrap;rounded=0;fillColor=#CCFFFF;fontStyle=1" parent="1" vertex="1">
          <mxGeometry x="286.5" y="20" width="270" height="30" as="geometry" />
        </mxCell>
        <mxCell id="2DqSAR6jqPEExU2KCkUM-65" style="edgeStyle=orthogonalEdgeStyle;rounded=0;orthogonalLoop=1;jettySize=auto;html=1;entryX=0.5;entryY=0;entryDx=0;entryDy=0;" parent="1" source="2DqSAR6jqPEExU2KCkUM-1" target="2DqSAR6jqPEExU2KCkUM-7" edge="1">
          <mxGeometry relative="1" as="geometry" />
        </mxCell>
        <mxCell id="2DqSAR6jqPEExU2KCkUM-1" value="A" style="verticalLabelPosition=middle;verticalAlign=middle;html=1;shape=offPageConnector;rounded=0;size=0.5;labelPosition=center;align=center;fontStyle=1" parent="1" vertex="1">
          <mxGeometry x="409" y="80" width="60" height="60" as="geometry" />
        </mxCell>
        <mxCell id="2DqSAR6jqPEExU2KCkUM-10" value="" style="edgeStyle=orthogonalEdgeStyle;rounded=0;orthogonalLoop=1;jettySize=auto;html=1;" parent="1" source="2DqSAR6jqPEExU2KCkUM-7" target="2DqSAR6jqPEExU2KCkUM-9" edge="1">
          <mxGeometry relative="1" as="geometry" />
        </mxCell>
        <mxCell id="2DqSAR6jqPEExU2KCkUM-7" value="&quot;Pilih menu(1/2/3/4/5): &quot;" style="shape=parallelogram;html=1;strokeWidth=2;perimeter=parallelogramPerimeter;whiteSpace=wrap;rounded=1;arcSize=12;size=0.23;fontStyle=1" parent="1" vertex="1">
          <mxGeometry x="339" y="210" width="200" height="30" as="geometry" />
        </mxCell>
        <mxCell id="2DqSAR6jqPEExU2KCkUM-12" value="" style="edgeStyle=orthogonalEdgeStyle;rounded=0;orthogonalLoop=1;jettySize=auto;html=1;" parent="1" source="2DqSAR6jqPEExU2KCkUM-9" target="2DqSAR6jqPEExU2KCkUM-11" edge="1">
          <mxGeometry relative="1" as="geometry" />
        </mxCell>
        <mxCell id="TAaNr2mikNiugz7PP8oj-17" value="NO" style="edgeLabel;html=1;align=center;verticalAlign=middle;resizable=0;points=[];" parent="2DqSAR6jqPEExU2KCkUM-12" vertex="1" connectable="0">
          <mxGeometry x="-0.6855" y="-2" relative="1" as="geometry">
            <mxPoint as="offset" />
          </mxGeometry>
        </mxCell>
        <mxCell id="2DqSAR6jqPEExU2KCkUM-23" value="" style="edgeStyle=orthogonalEdgeStyle;rounded=0;orthogonalLoop=1;jettySize=auto;html=1;" parent="1" source="2DqSAR6jqPEExU2KCkUM-9" target="2DqSAR6jqPEExU2KCkUM-22" edge="1">
          <mxGeometry relative="1" as="geometry" />
        </mxCell>
        <mxCell id="TAaNr2mikNiugz7PP8oj-16" value="YES" style="edgeLabel;html=1;align=center;verticalAlign=middle;resizable=0;points=[];" parent="2DqSAR6jqPEExU2KCkUM-23" vertex="1" connectable="0">
          <mxGeometry x="-0.1213" y="2" relative="1" as="geometry">
            <mxPoint as="offset" />
          </mxGeometry>
        </mxCell>
        <mxCell id="2DqSAR6jqPEExU2KCkUM-9" value="&lt;span style=&quot;font-size: 16px;&quot;&gt;case 1&lt;/span&gt;" style="strokeWidth=2;html=1;shape=mxgraph.flowchart.decision;whiteSpace=wrap;fontStyle=1" parent="1" vertex="1">
          <mxGeometry x="60" y="290" width="80" height="65" as="geometry" />
        </mxCell>
        <mxCell id="2DqSAR6jqPEExU2KCkUM-14" value="" style="edgeStyle=orthogonalEdgeStyle;rounded=0;orthogonalLoop=1;jettySize=auto;html=1;" parent="1" source="2DqSAR6jqPEExU2KCkUM-11" target="2DqSAR6jqPEExU2KCkUM-13" edge="1">
          <mxGeometry relative="1" as="geometry" />
        </mxCell>
        <mxCell id="TAaNr2mikNiugz7PP8oj-14" value="NO" style="edgeLabel;html=1;align=center;verticalAlign=middle;resizable=0;points=[];" parent="2DqSAR6jqPEExU2KCkUM-14" vertex="1" connectable="0">
          <mxGeometry x="0.1942" relative="1" as="geometry">
            <mxPoint as="offset" />
          </mxGeometry>
        </mxCell>
        <mxCell id="TAaNr2mikNiugz7PP8oj-1" value="" style="edgeStyle=orthogonalEdgeStyle;rounded=0;orthogonalLoop=1;jettySize=auto;html=1;" parent="1" source="2DqSAR6jqPEExU2KCkUM-11" target="2DqSAR6jqPEExU2KCkUM-28" edge="1">
          <mxGeometry relative="1" as="geometry" />
        </mxCell>
        <mxCell id="TAaNr2mikNiugz7PP8oj-15" value="YES" style="edgeLabel;html=1;align=center;verticalAlign=middle;resizable=0;points=[];" parent="TAaNr2mikNiugz7PP8oj-1" vertex="1" connectable="0">
          <mxGeometry x="-0.3074" y="1" relative="1" as="geometry">
            <mxPoint x="-11" as="offset" />
          </mxGeometry>
        </mxCell>
        <mxCell id="2DqSAR6jqPEExU2KCkUM-11" value="&lt;span style=&quot;font-size: 16px;&quot;&gt;case 2&lt;/span&gt;" style="strokeWidth=2;html=1;shape=mxgraph.flowchart.decision;whiteSpace=wrap;fontStyle=1" parent="1" vertex="1">
          <mxGeometry x="63.879999999999995" y="402.5" width="72.25" height="65" as="geometry" />
        </mxCell>
        <mxCell id="2DqSAR6jqPEExU2KCkUM-16" value="" style="edgeStyle=orthogonalEdgeStyle;rounded=0;orthogonalLoop=1;jettySize=auto;html=1;" parent="1" source="2DqSAR6jqPEExU2KCkUM-13" target="2DqSAR6jqPEExU2KCkUM-15" edge="1">
          <mxGeometry relative="1" as="geometry" />
        </mxCell>
        <mxCell id="TAaNr2mikNiugz7PP8oj-13" value="NO" style="edgeLabel;html=1;align=center;verticalAlign=middle;resizable=0;points=[];" parent="2DqSAR6jqPEExU2KCkUM-16" vertex="1" connectable="0">
          <mxGeometry x="-0.1631" relative="1" as="geometry">
            <mxPoint as="offset" />
          </mxGeometry>
        </mxCell>
        <mxCell id="2DqSAR6jqPEExU2KCkUM-33" value="" style="edgeStyle=orthogonalEdgeStyle;rounded=0;orthogonalLoop=1;jettySize=auto;html=1;" parent="1" source="2DqSAR6jqPEExU2KCkUM-13" target="2DqSAR6jqPEExU2KCkUM-31" edge="1">
          <mxGeometry relative="1" as="geometry" />
        </mxCell>
        <mxCell id="TAaNr2mikNiugz7PP8oj-12" value="YES" style="edgeLabel;html=1;align=center;verticalAlign=middle;resizable=0;points=[];" parent="2DqSAR6jqPEExU2KCkUM-33" vertex="1" connectable="0">
          <mxGeometry x="-0.219" y="-2" relative="1" as="geometry">
            <mxPoint as="offset" />
          </mxGeometry>
        </mxCell>
        <mxCell id="2DqSAR6jqPEExU2KCkUM-13" value="&lt;span style=&quot;font-size: 16px;&quot;&gt;case 3&lt;/span&gt;" style="strokeWidth=2;html=1;shape=mxgraph.flowchart.decision;whiteSpace=wrap;fontStyle=1" parent="1" vertex="1">
          <mxGeometry x="64.5" y="510" width="75.5" height="70" as="geometry" />
        </mxCell>
        <mxCell id="2DqSAR6jqPEExU2KCkUM-43" value="" style="edgeStyle=orthogonalEdgeStyle;rounded=0;orthogonalLoop=1;jettySize=auto;html=1;" parent="1" source="2DqSAR6jqPEExU2KCkUM-15" target="2DqSAR6jqPEExU2KCkUM-41" edge="1">
          <mxGeometry relative="1" as="geometry" />
        </mxCell>
        <mxCell id="TAaNr2mikNiugz7PP8oj-11" value="YES" style="edgeLabel;html=1;align=center;verticalAlign=middle;resizable=0;points=[];" parent="2DqSAR6jqPEExU2KCkUM-43" vertex="1" connectable="0">
          <mxGeometry x="-0.3499" y="-1" relative="1" as="geometry">
            <mxPoint x="-4" y="1" as="offset" />
          </mxGeometry>
        </mxCell>
        <mxCell id="Ub6NKfqlfOhAL7hdlgim-2" value="" style="edgeStyle=orthogonalEdgeStyle;rounded=0;orthogonalLoop=1;jettySize=auto;html=1;" parent="1" source="2DqSAR6jqPEExU2KCkUM-15" target="Ub6NKfqlfOhAL7hdlgim-1" edge="1">
          <mxGeometry relative="1" as="geometry" />
        </mxCell>
        <mxCell id="Ub6NKfqlfOhAL7hdlgim-4" value="NO" style="edgeLabel;html=1;align=center;verticalAlign=middle;resizable=0;points=[];" parent="Ub6NKfqlfOhAL7hdlgim-2" vertex="1" connectable="0">
          <mxGeometry x="-0.2586" y="-2" relative="1" as="geometry">
            <mxPoint as="offset" />
          </mxGeometry>
        </mxCell>
        <mxCell id="2DqSAR6jqPEExU2KCkUM-15" value="&lt;span style=&quot;font-size: 16px;&quot;&gt;case 4&lt;/span&gt;" style="strokeWidth=2;html=1;shape=mxgraph.flowchart.decision;whiteSpace=wrap;fontStyle=1" parent="1" vertex="1">
          <mxGeometry x="58.129999999999995" y="726" width="88.25" height="55" as="geometry" />
        </mxCell>
        <mxCell id="2DqSAR6jqPEExU2KCkUM-21" value="" style="edgeStyle=orthogonalEdgeStyle;rounded=0;orthogonalLoop=1;jettySize=auto;html=1;" parent="1" source="2DqSAR6jqPEExU2KCkUM-17" target="2DqSAR6jqPEExU2KCkUM-20" edge="1">
          <mxGeometry relative="1" as="geometry" />
        </mxCell>
        <mxCell id="TAaNr2mikNiugz7PP8oj-7" value="NO" style="edgeLabel;html=1;align=center;verticalAlign=middle;resizable=0;points=[];" parent="2DqSAR6jqPEExU2KCkUM-21" vertex="1" connectable="0">
          <mxGeometry x="-0.5908" relative="1" as="geometry">
            <mxPoint as="offset" />
          </mxGeometry>
        </mxCell>
        <mxCell id="gvDB-3mFa1OPKRQiVjzO-3" style="edgeStyle=orthogonalEdgeStyle;rounded=0;orthogonalLoop=1;jettySize=auto;html=1;entryX=0;entryY=0.5;entryDx=0;entryDy=0;" parent="1" source="2DqSAR6jqPEExU2KCkUM-17" target="gvDB-3mFa1OPKRQiVjzO-1" edge="1">
          <mxGeometry relative="1" as="geometry">
            <Array as="points">
              <mxPoint x="102" y="1070" />
            </Array>
          </mxGeometry>
        </mxCell>
        <mxCell id="gvDB-3mFa1OPKRQiVjzO-4" value="YES" style="edgeLabel;html=1;align=center;verticalAlign=middle;resizable=0;points=[];" parent="gvDB-3mFa1OPKRQiVjzO-3" vertex="1" connectable="0">
          <mxGeometry x="-0.7282" relative="1" as="geometry">
            <mxPoint as="offset" />
          </mxGeometry>
        </mxCell>
        <mxCell id="2DqSAR6jqPEExU2KCkUM-17" value="&lt;span style=&quot;font-size: 16px;&quot;&gt;case 6&lt;/span&gt;" style="strokeWidth=2;html=1;shape=mxgraph.flowchart.decision;whiteSpace=wrap;fontStyle=1" parent="1" vertex="1">
          <mxGeometry x="60.879999999999995" y="960" width="82.76" height="65" as="geometry" />
        </mxCell>
        <mxCell id="2DqSAR6jqPEExU2KCkUM-57" value="" style="edgeStyle=orthogonalEdgeStyle;rounded=0;orthogonalLoop=1;jettySize=auto;html=1;" parent="1" source="2DqSAR6jqPEExU2KCkUM-20" target="2DqSAR6jqPEExU2KCkUM-56" edge="1">
          <mxGeometry relative="1" as="geometry" />
        </mxCell>
        <mxCell id="2DqSAR6jqPEExU2KCkUM-20" value="&lt;span style=&quot;font-size: 16px;&quot;&gt;default&lt;/span&gt;" style="strokeWidth=2;html=1;shape=mxgraph.flowchart.decision;whiteSpace=wrap;fontStyle=1" parent="1" vertex="1">
          <mxGeometry x="379" y="970" width="100" height="45" as="geometry" />
        </mxCell>
        <mxCell id="2DqSAR6jqPEExU2KCkUM-61" value="" style="edgeStyle=orthogonalEdgeStyle;rounded=0;orthogonalLoop=1;jettySize=auto;html=1;" parent="1" source="2DqSAR6jqPEExU2KCkUM-22" target="2DqSAR6jqPEExU2KCkUM-60" edge="1">
          <mxGeometry relative="1" as="geometry" />
        </mxCell>
        <mxCell id="2DqSAR6jqPEExU2KCkUM-22" value="&lt;b&gt;hari(Weekend/&lt;/b&gt;&lt;div&gt;&lt;b&gt;Weekday),&lt;span style=&quot;background-color: transparent; color: light-dark(rgb(0, 0, 0), rgb(255, 255, 255));&quot;&gt;durasi bermain,&amp;nbsp;&lt;/span&gt;&lt;/b&gt;&lt;/div&gt;&lt;div&gt;&lt;span style=&quot;background-color: transparent; color: light-dark(rgb(0, 0, 0), rgb(255, 255, 255));&quot;&gt;&lt;b&gt;kaus kaki, status tiket&lt;/b&gt;&lt;/span&gt;&lt;/div&gt;" style="shape=parallelogram;html=1;strokeWidth=2;perimeter=parallelogramPerimeter;whiteSpace=wrap;rounded=1;arcSize=12;size=0.23;" parent="1" vertex="1">
          <mxGeometry x="279" y="295" width="200" height="60" as="geometry" />
        </mxCell>
        <mxCell id="2DqSAR6jqPEExU2KCkUM-26" value="" style="endArrow=classic;html=1;rounded=0;" parent="1" edge="1">
          <mxGeometry width="50" height="50" relative="1" as="geometry">
            <mxPoint x="289" y="306" as="sourcePoint" />
            <mxPoint x="329" y="306" as="targetPoint" />
          </mxGeometry>
        </mxCell>
        <mxCell id="2DqSAR6jqPEExU2KCkUM-28" value="Tampilkan daftar tiket&lt;div&gt;&amp;nbsp;yang di tambahkan&lt;/div&gt;" style="shape=parallelogram;html=1;strokeWidth=2;perimeter=parallelogramPerimeter;whiteSpace=wrap;rounded=1;arcSize=12;size=0.23;fontStyle=1" parent="1" vertex="1">
          <mxGeometry x="293" y="413.75" width="211" height="42.5" as="geometry" />
        </mxCell>
        <mxCell id="2DqSAR6jqPEExU2KCkUM-30" value="" style="endArrow=classic;html=1;rounded=0;" parent="1" edge="1">
          <mxGeometry width="50" height="50" relative="1" as="geometry">
            <mxPoint x="465" y="446" as="sourcePoint" />
            <mxPoint x="505" y="446" as="targetPoint" />
          </mxGeometry>
        </mxCell>
        <mxCell id="2DqSAR6jqPEExU2KCkUM-35" value="" style="edgeStyle=orthogonalEdgeStyle;rounded=0;orthogonalLoop=1;jettySize=auto;html=1;" parent="1" source="2DqSAR6jqPEExU2KCkUM-31" target="2DqSAR6jqPEExU2KCkUM-34" edge="1">
          <mxGeometry relative="1" as="geometry" />
        </mxCell>
        <mxCell id="2DqSAR6jqPEExU2KCkUM-31" value="Tampilkan daftar tiket&amp;nbsp;" style="shape=parallelogram;html=1;strokeWidth=2;perimeter=parallelogramPerimeter;whiteSpace=wrap;rounded=1;arcSize=12;size=0.23;fontStyle=1" parent="1" vertex="1">
          <mxGeometry x="277.5" y="527.5" width="200" height="35" as="geometry" />
        </mxCell>
        <mxCell id="2DqSAR6jqPEExU2KCkUM-32" value="" style="endArrow=classic;html=1;rounded=0;" parent="1" edge="1">
          <mxGeometry width="50" height="50" relative="1" as="geometry">
            <mxPoint x="424" y="557.96" as="sourcePoint" />
            <mxPoint x="464" y="557.96" as="targetPoint" />
          </mxGeometry>
        </mxCell>
        <mxCell id="2DqSAR6jqPEExU2KCkUM-38" value="" style="edgeStyle=orthogonalEdgeStyle;rounded=0;orthogonalLoop=1;jettySize=auto;html=1;" parent="1" source="2DqSAR6jqPEExU2KCkUM-34" target="2DqSAR6jqPEExU2KCkUM-36" edge="1">
          <mxGeometry relative="1" as="geometry" />
        </mxCell>
        <mxCell id="2DqSAR6jqPEExU2KCkUM-34" value="pilih nomer tiket yang&amp;nbsp;&lt;div&gt;ingin diubah:&amp;nbsp;&lt;/div&gt;" style="shape=parallelogram;html=1;strokeWidth=2;perimeter=parallelogramPerimeter;whiteSpace=wrap;rounded=1;arcSize=12;size=0.23;fontStyle=1" parent="1" vertex="1">
          <mxGeometry x="510" y="527.5" width="200" height="35" as="geometry" />
        </mxCell>
        <mxCell id="2DqSAR6jqPEExU2KCkUM-59" value="" style="edgeStyle=orthogonalEdgeStyle;rounded=0;orthogonalLoop=1;jettySize=auto;html=1;" parent="1" source="2DqSAR6jqPEExU2KCkUM-36" target="2DqSAR6jqPEExU2KCkUM-54" edge="1">
          <mxGeometry relative="1" as="geometry" />
        </mxCell>
        <mxCell id="2DqSAR6jqPEExU2KCkUM-36" value="hari(Weekend/&lt;div&gt;Weekday),&lt;span style=&quot;background-color: transparent; color: light-dark(rgb(0, 0, 0), rgb(255, 255, 255));&quot;&gt;durasi bermain,&amp;nbsp;&lt;/span&gt;&lt;/div&gt;&lt;div&gt;&lt;span style=&quot;background-color: transparent; color: light-dark(rgb(0, 0, 0), rgb(255, 255, 255));&quot;&gt;kaus kaki,status tiket&lt;/span&gt;&lt;/div&gt;" style="shape=parallelogram;html=1;strokeWidth=2;perimeter=parallelogramPerimeter;whiteSpace=wrap;rounded=1;arcSize=12;size=0.23;fontStyle=1" parent="1" vertex="1">
          <mxGeometry x="477.5" y="600" width="221" height="50" as="geometry" />
        </mxCell>
        <mxCell id="2DqSAR6jqPEExU2KCkUM-37" value="" style="endArrow=classic;html=1;rounded=0;" parent="1" edge="1">
          <mxGeometry width="50" height="50" relative="1" as="geometry">
            <mxPoint x="498" y="608" as="sourcePoint" />
            <mxPoint x="538" y="608" as="targetPoint" />
          </mxGeometry>
        </mxCell>
        <mxCell id="2DqSAR6jqPEExU2KCkUM-39" value="" style="endArrow=classic;html=1;rounded=0;" parent="1" edge="1">
          <mxGeometry width="50" height="50" relative="1" as="geometry">
            <mxPoint x="510" y="530" as="sourcePoint" />
            <mxPoint x="550" y="530" as="targetPoint" />
          </mxGeometry>
        </mxCell>
        <mxCell id="2DqSAR6jqPEExU2KCkUM-46" value="" style="edgeStyle=orthogonalEdgeStyle;rounded=0;orthogonalLoop=1;jettySize=auto;html=1;" parent="1" source="2DqSAR6jqPEExU2KCkUM-41" target="2DqSAR6jqPEExU2KCkUM-44" edge="1">
          <mxGeometry relative="1" as="geometry" />
        </mxCell>
        <mxCell id="2DqSAR6jqPEExU2KCkUM-41" value="Tampilkan daftar tiket&amp;nbsp;" style="shape=parallelogram;html=1;strokeWidth=2;perimeter=parallelogramPerimeter;whiteSpace=wrap;rounded=1;arcSize=12;size=0.23;fontStyle=1" parent="1" vertex="1">
          <mxGeometry x="269" y="736" width="200" height="35" as="geometry" />
        </mxCell>
        <mxCell id="2DqSAR6jqPEExU2KCkUM-42" value="" style="endArrow=classic;html=1;rounded=0;" parent="1" edge="1">
          <mxGeometry width="50" height="50" relative="1" as="geometry">
            <mxPoint x="423" y="760.5" as="sourcePoint" />
            <mxPoint x="463" y="760.5" as="targetPoint" />
          </mxGeometry>
        </mxCell>
        <mxCell id="2DqSAR6jqPEExU2KCkUM-50" value="" style="edgeStyle=orthogonalEdgeStyle;rounded=0;orthogonalLoop=1;jettySize=auto;html=1;" parent="1" source="2DqSAR6jqPEExU2KCkUM-44" target="2DqSAR6jqPEExU2KCkUM-48" edge="1">
          <mxGeometry relative="1" as="geometry" />
        </mxCell>
        <mxCell id="2DqSAR6jqPEExU2KCkUM-44" value="pilih nomer tiket yang&amp;nbsp;&lt;div&gt;ingin dihapus:&amp;nbsp;&lt;/div&gt;" style="shape=parallelogram;html=1;strokeWidth=2;perimeter=parallelogramPerimeter;whiteSpace=wrap;rounded=1;arcSize=12;size=0.23;fontStyle=1" parent="1" vertex="1">
          <mxGeometry x="489" y="736" width="200" height="35" as="geometry" />
        </mxCell>
        <mxCell id="2DqSAR6jqPEExU2KCkUM-45" value="" style="endArrow=classic;html=1;rounded=0;" parent="1" edge="1">
          <mxGeometry width="50" height="50" relative="1" as="geometry">
            <mxPoint x="492" y="745" as="sourcePoint" />
            <mxPoint x="532" y="745" as="targetPoint" />
          </mxGeometry>
        </mxCell>
        <mxCell id="2DqSAR6jqPEExU2KCkUM-48" value="&quot;Tiket berhasil dihapus&quot;" style="shape=parallelogram;html=1;strokeWidth=2;perimeter=parallelogramPerimeter;whiteSpace=wrap;rounded=1;arcSize=12;size=0.23;fontStyle=1" parent="1" vertex="1">
          <mxGeometry x="489" y="800" width="200" height="35" as="geometry" />
        </mxCell>
        <mxCell id="2DqSAR6jqPEExU2KCkUM-49" value="" style="endArrow=classic;html=1;rounded=0;" parent="1" edge="1">
          <mxGeometry width="50" height="50" relative="1" as="geometry">
            <mxPoint x="639" y="828.5" as="sourcePoint" />
            <mxPoint x="679" y="828.5" as="targetPoint" />
          </mxGeometry>
        </mxCell>
        <mxCell id="2DqSAR6jqPEExU2KCkUM-54" value="&quot;Tiket berhasil diubah&quot;" style="shape=parallelogram;html=1;strokeWidth=2;perimeter=parallelogramPerimeter;whiteSpace=wrap;rounded=1;arcSize=12;size=0.23;fontStyle=1" parent="1" vertex="1">
          <mxGeometry x="488" y="680" width="200" height="35" as="geometry" />
        </mxCell>
        <mxCell id="2DqSAR6jqPEExU2KCkUM-55" value="" style="endArrow=classic;html=1;rounded=0;" parent="1" edge="1">
          <mxGeometry width="50" height="50" relative="1" as="geometry">
            <mxPoint x="638" y="708.5" as="sourcePoint" />
            <mxPoint x="678" y="708.5" as="targetPoint" />
          </mxGeometry>
        </mxCell>
        <mxCell id="2DqSAR6jqPEExU2KCkUM-70" style="edgeStyle=orthogonalEdgeStyle;rounded=0;orthogonalLoop=1;jettySize=auto;html=1;entryX=1;entryY=0.5;entryDx=0;entryDy=0;" parent="1" source="2DqSAR6jqPEExU2KCkUM-56" target="2DqSAR6jqPEExU2KCkUM-7" edge="1">
          <mxGeometry relative="1" as="geometry">
            <mxPoint x="530" y="220" as="targetPoint" />
            <Array as="points">
              <mxPoint x="780" y="1000" />
              <mxPoint x="780" y="225" />
            </Array>
          </mxGeometry>
        </mxCell>
        <mxCell id="2DqSAR6jqPEExU2KCkUM-56" value="&quot;Pilihan tidak valid.&quot;" style="shape=parallelogram;html=1;strokeWidth=2;perimeter=parallelogramPerimeter;whiteSpace=wrap;rounded=1;arcSize=12;size=0.23;fontStyle=1" parent="1" vertex="1">
          <mxGeometry x="510" y="972.5" width="240" height="40" as="geometry" />
        </mxCell>
        <mxCell id="2DqSAR6jqPEExU2KCkUM-58" value="" style="endArrow=classic;html=1;rounded=0;" parent="1" edge="1">
          <mxGeometry width="50" height="50" relative="1" as="geometry">
            <mxPoint x="689" y="1007" as="sourcePoint" />
            <mxPoint x="729" y="1007" as="targetPoint" />
          </mxGeometry>
        </mxCell>
        <mxCell id="2DqSAR6jqPEExU2KCkUM-60" value="&quot;Tiket berhasil ditambahkan&quot;" style="shape=parallelogram;html=1;strokeWidth=2;perimeter=parallelogramPerimeter;whiteSpace=wrap;rounded=1;arcSize=12;size=0.23;fontStyle=1" parent="1" vertex="1">
          <mxGeometry x="489" y="307.5" width="211" height="35" as="geometry" />
        </mxCell>
        <mxCell id="2DqSAR6jqPEExU2KCkUM-62" value="" style="endArrow=classic;html=1;rounded=0;" parent="1" edge="1">
          <mxGeometry width="50" height="50" relative="1" as="geometry">
            <mxPoint x="645" y="337" as="sourcePoint" />
            <mxPoint x="685" y="337" as="targetPoint" />
          </mxGeometry>
        </mxCell>
        <mxCell id="2DqSAR6jqPEExU2KCkUM-72" value="" style="endArrow=none;html=1;rounded=0;exitX=1;exitY=0.5;exitDx=0;exitDy=0;" parent="1" source="2DqSAR6jqPEExU2KCkUM-60" edge="1">
          <mxGeometry width="50" height="50" relative="1" as="geometry">
            <mxPoint x="689" y="330" as="sourcePoint" />
            <mxPoint x="780" y="325" as="targetPoint" />
          </mxGeometry>
        </mxCell>
        <mxCell id="2DqSAR6jqPEExU2KCkUM-73" value="" style="endArrow=none;html=1;rounded=0;exitX=1;exitY=0.5;exitDx=0;exitDy=0;" parent="1" source="2DqSAR6jqPEExU2KCkUM-54" edge="1">
          <mxGeometry width="50" height="50" relative="1" as="geometry">
            <mxPoint x="650" y="696.97" as="sourcePoint" />
            <mxPoint x="780" y="697" as="targetPoint" />
          </mxGeometry>
        </mxCell>
        <mxCell id="2DqSAR6jqPEExU2KCkUM-74" value="" style="endArrow=none;html=1;rounded=0;exitX=1;exitY=0.5;exitDx=0;exitDy=0;" parent="1" source="2DqSAR6jqPEExU2KCkUM-48" edge="1">
          <mxGeometry width="50" height="50" relative="1" as="geometry">
            <mxPoint x="669" y="816.97" as="sourcePoint" />
            <mxPoint x="780" y="817" as="targetPoint" />
          </mxGeometry>
        </mxCell>
        <mxCell id="2DqSAR6jqPEExU2KCkUM-76" value="" style="endArrow=none;html=1;rounded=0;exitX=1;exitY=0.5;exitDx=0;exitDy=0;" parent="1" source="2DqSAR6jqPEExU2KCkUM-28" edge="1">
          <mxGeometry width="50" height="50" relative="1" as="geometry">
            <mxPoint x="469" y="440" as="sourcePoint" />
            <mxPoint x="780" y="435" as="targetPoint" />
          </mxGeometry>
        </mxCell>
        <mxCell id="TAaNr2mikNiugz7PP8oj-2" style="edgeStyle=orthogonalEdgeStyle;rounded=0;orthogonalLoop=1;jettySize=auto;html=1;exitX=0.5;exitY=1;exitDx=0;exitDy=0;" parent="1" source="2DqSAR6jqPEExU2KCkUM-56" target="2DqSAR6jqPEExU2KCkUM-56" edge="1">
          <mxGeometry relative="1" as="geometry" />
        </mxCell>
        <mxCell id="gvDB-3mFa1OPKRQiVjzO-1" value="&lt;b&gt;Menu Utama&lt;/b&gt;" style="rounded=1;whiteSpace=wrap;html=1;absoluteArcSize=1;arcSize=14;strokeWidth=2;" parent="1" vertex="1">
          <mxGeometry x="364" y="1050" width="115" height="40" as="geometry" />
        </mxCell>
        <mxCell id="Ub6NKfqlfOhAL7hdlgim-3" value="" style="edgeStyle=orthogonalEdgeStyle;rounded=0;orthogonalLoop=1;jettySize=auto;html=1;fontStyle=1" parent="1" source="Ub6NKfqlfOhAL7hdlgim-1" target="2DqSAR6jqPEExU2KCkUM-17" edge="1">
          <mxGeometry relative="1" as="geometry" />
        </mxCell>
        <mxCell id="Ub6NKfqlfOhAL7hdlgim-5" value="&lt;b&gt;NO&lt;/b&gt;" style="edgeLabel;html=1;align=center;verticalAlign=middle;resizable=0;points=[];" parent="Ub6NKfqlfOhAL7hdlgim-3" vertex="1" connectable="0">
          <mxGeometry x="-0.3797" y="-2" relative="1" as="geometry">
            <mxPoint as="offset" />
          </mxGeometry>
        </mxCell>
        <mxCell id="Ub6NKfqlfOhAL7hdlgim-13" value="NO" style="edgeLabel;html=1;align=center;verticalAlign=middle;resizable=0;points=[];" parent="Ub6NKfqlfOhAL7hdlgim-3" vertex="1" connectable="0">
          <mxGeometry x="-0.3702" y="-3" relative="1" as="geometry">
            <mxPoint as="offset" />
          </mxGeometry>
        </mxCell>
        <mxCell id="Ub6NKfqlfOhAL7hdlgim-11" value="" style="edgeStyle=none;rounded=0;orthogonalLoop=1;jettySize=auto;html=1;" parent="1" source="Ub6NKfqlfOhAL7hdlgim-1" target="Ub6NKfqlfOhAL7hdlgim-10" edge="1">
          <mxGeometry relative="1" as="geometry" />
        </mxCell>
        <mxCell id="Ub6NKfqlfOhAL7hdlgim-12" value="YES" style="edgeLabel;html=1;align=center;verticalAlign=middle;resizable=0;points=[];" parent="Ub6NKfqlfOhAL7hdlgim-11" vertex="1" connectable="0">
          <mxGeometry x="-0.0357" y="2" relative="1" as="geometry">
            <mxPoint as="offset" />
          </mxGeometry>
        </mxCell>
        <mxCell id="Ub6NKfqlfOhAL7hdlgim-1" value="&lt;span style=&quot;font-size: 16px;&quot;&gt;case 5&lt;/span&gt;" style="strokeWidth=2;html=1;shape=mxgraph.flowchart.decision;whiteSpace=wrap;fontStyle=1" parent="1" vertex="1">
          <mxGeometry x="60.88" y="840" width="82.76" height="65" as="geometry" />
        </mxCell>
        <mxCell id="Ub6NKfqlfOhAL7hdlgim-10" value="C" style="verticalLabelPosition=middle;verticalAlign=middle;html=1;shape=offPageConnector;rounded=0;size=0.5;labelPosition=center;align=center;fontStyle=1" parent="1" vertex="1">
          <mxGeometry x="260" y="840" width="60" height="60" as="geometry" />
        </mxCell>
      </root>
    </mxGraphModel>
  </diagram>
  <diagram id="fxDngwKVhE72pDzjESqw" name="Menu Tiket User">
    <mxGraphModel dx="1400" dy="895" grid="1" gridSize="10" guides="1" tooltips="1" connect="1" arrows="1" fold="1" page="1" pageScale="1" pageWidth="827" pageHeight="1169" math="0" shadow="0">
      <root>
        <mxCell id="0" />
        <mxCell id="1" parent="0" />
        <mxCell id="WbgyvdEXmIm0cyRDEVJO-1" value="&lt;font style=&quot;font-size: 24px;&quot;&gt;MENU TIKET USER&lt;/font&gt;" style="text;html=1;align=center;verticalAlign=middle;whiteSpace=wrap;rounded=0;fillColor=#CCFFFF;fontStyle=1" parent="1" vertex="1">
          <mxGeometry x="286.5" y="20" width="270" height="30" as="geometry" />
        </mxCell>
        <mxCell id="WbgyvdEXmIm0cyRDEVJO-2" style="edgeStyle=orthogonalEdgeStyle;rounded=0;orthogonalLoop=1;jettySize=auto;html=1;entryX=0.5;entryY=0;entryDx=0;entryDy=0;" parent="1" source="WbgyvdEXmIm0cyRDEVJO-3" target="WbgyvdEXmIm0cyRDEVJO-5" edge="1">
          <mxGeometry relative="1" as="geometry" />
        </mxCell>
        <mxCell id="WbgyvdEXmIm0cyRDEVJO-3" value="B" style="verticalLabelPosition=middle;verticalAlign=middle;html=1;shape=offPageConnector;rounded=0;size=0.5;labelPosition=center;align=center;fontStyle=1" parent="1" vertex="1">
          <mxGeometry x="409" y="80" width="60" height="60" as="geometry" />
        </mxCell>
        <mxCell id="WbgyvdEXmIm0cyRDEVJO-4" value="" style="edgeStyle=orthogonalEdgeStyle;rounded=0;orthogonalLoop=1;jettySize=auto;html=1;" parent="1" source="WbgyvdEXmIm0cyRDEVJO-5" target="WbgyvdEXmIm0cyRDEVJO-10" edge="1">
          <mxGeometry relative="1" as="geometry" />
        </mxCell>
        <mxCell id="2Jx9TQ7FffjeZ4OL-c1f-1" value="" style="edgeStyle=orthogonalEdgeStyle;rounded=0;orthogonalLoop=1;jettySize=auto;html=1;" parent="1" source="WbgyvdEXmIm0cyRDEVJO-5" target="WbgyvdEXmIm0cyRDEVJO-34" edge="1">
          <mxGeometry relative="1" as="geometry" />
        </mxCell>
        <mxCell id="WbgyvdEXmIm0cyRDEVJO-5" value="&quot;Pilih menu(1/2/3/4/5): &quot;" style="shape=parallelogram;html=1;strokeWidth=2;perimeter=parallelogramPerimeter;whiteSpace=wrap;rounded=1;arcSize=12;size=0.23;fontStyle=1" parent="1" vertex="1">
          <mxGeometry x="339" y="210" width="200" height="30" as="geometry" />
        </mxCell>
        <mxCell id="WbgyvdEXmIm0cyRDEVJO-6" value="" style="edgeStyle=orthogonalEdgeStyle;rounded=0;orthogonalLoop=1;jettySize=auto;html=1;" parent="1" source="WbgyvdEXmIm0cyRDEVJO-10" target="WbgyvdEXmIm0cyRDEVJO-15" edge="1">
          <mxGeometry relative="1" as="geometry" />
        </mxCell>
        <mxCell id="WbgyvdEXmIm0cyRDEVJO-7" value="NO" style="edgeLabel;html=1;align=center;verticalAlign=middle;resizable=0;points=[];" parent="WbgyvdEXmIm0cyRDEVJO-6" vertex="1" connectable="0">
          <mxGeometry x="-0.6855" y="-2" relative="1" as="geometry">
            <mxPoint as="offset" />
          </mxGeometry>
        </mxCell>
        <mxCell id="WbgyvdEXmIm0cyRDEVJO-8" value="" style="edgeStyle=orthogonalEdgeStyle;rounded=0;orthogonalLoop=1;jettySize=auto;html=1;" parent="1" source="WbgyvdEXmIm0cyRDEVJO-10" target="WbgyvdEXmIm0cyRDEVJO-34" edge="1">
          <mxGeometry relative="1" as="geometry" />
        </mxCell>
        <mxCell id="WbgyvdEXmIm0cyRDEVJO-9" value="YES" style="edgeLabel;html=1;align=center;verticalAlign=middle;resizable=0;points=[];" parent="WbgyvdEXmIm0cyRDEVJO-8" vertex="1" connectable="0">
          <mxGeometry x="-0.1213" y="2" relative="1" as="geometry">
            <mxPoint as="offset" />
          </mxGeometry>
        </mxCell>
        <mxCell id="WbgyvdEXmIm0cyRDEVJO-10" value="&lt;span style=&quot;font-size: 16px;&quot;&gt;case 1&lt;/span&gt;" style="strokeWidth=2;html=1;shape=mxgraph.flowchart.decision;whiteSpace=wrap;fontStyle=1" parent="1" vertex="1">
          <mxGeometry x="60" y="290" width="80" height="65" as="geometry" />
        </mxCell>
        <mxCell id="WbgyvdEXmIm0cyRDEVJO-13" value="" style="edgeStyle=orthogonalEdgeStyle;rounded=0;orthogonalLoop=1;jettySize=auto;html=1;" parent="1" source="WbgyvdEXmIm0cyRDEVJO-15" target="WbgyvdEXmIm0cyRDEVJO-36" edge="1">
          <mxGeometry relative="1" as="geometry" />
        </mxCell>
        <mxCell id="WbgyvdEXmIm0cyRDEVJO-14" value="YES" style="edgeLabel;html=1;align=center;verticalAlign=middle;resizable=0;points=[];" parent="WbgyvdEXmIm0cyRDEVJO-13" vertex="1" connectable="0">
          <mxGeometry x="-0.3074" y="1" relative="1" as="geometry">
            <mxPoint x="-11" as="offset" />
          </mxGeometry>
        </mxCell>
        <mxCell id="WbgyvdEXmIm0cyRDEVJO-15" value="&lt;span style=&quot;font-size: 16px;&quot;&gt;case 2&lt;/span&gt;" style="strokeWidth=2;html=1;shape=mxgraph.flowchart.decision;whiteSpace=wrap;fontStyle=1" parent="1" vertex="1">
          <mxGeometry x="63.879999999999995" y="402.5" width="72.25" height="65" as="geometry" />
        </mxCell>
        <mxCell id="WbgyvdEXmIm0cyRDEVJO-26" value="" style="edgeStyle=orthogonalEdgeStyle;rounded=0;orthogonalLoop=1;jettySize=auto;html=1;" parent="1" source="WbgyvdEXmIm0cyRDEVJO-30" target="WbgyvdEXmIm0cyRDEVJO-32" edge="1">
          <mxGeometry relative="1" as="geometry" />
        </mxCell>
        <mxCell id="WbgyvdEXmIm0cyRDEVJO-27" value="NO" style="edgeLabel;html=1;align=center;verticalAlign=middle;resizable=0;points=[];" parent="WbgyvdEXmIm0cyRDEVJO-26" vertex="1" connectable="0">
          <mxGeometry x="-0.5908" relative="1" as="geometry">
            <mxPoint as="offset" />
          </mxGeometry>
        </mxCell>
        <mxCell id="WbgyvdEXmIm0cyRDEVJO-28" style="edgeStyle=orthogonalEdgeStyle;rounded=0;orthogonalLoop=1;jettySize=auto;html=1;entryX=0;entryY=0.5;entryDx=0;entryDy=0;" parent="1" source="WbgyvdEXmIm0cyRDEVJO-30" target="WbgyvdEXmIm0cyRDEVJO-67" edge="1">
          <mxGeometry relative="1" as="geometry">
            <Array as="points">
              <mxPoint x="95.06" y="645" />
            </Array>
          </mxGeometry>
        </mxCell>
        <mxCell id="WbgyvdEXmIm0cyRDEVJO-29" value="YES" style="edgeLabel;html=1;align=center;verticalAlign=middle;resizable=0;points=[];" parent="WbgyvdEXmIm0cyRDEVJO-28" vertex="1" connectable="0">
          <mxGeometry x="-0.7282" relative="1" as="geometry">
            <mxPoint as="offset" />
          </mxGeometry>
        </mxCell>
        <mxCell id="WbgyvdEXmIm0cyRDEVJO-30" value="&lt;span style=&quot;font-size: 16px;&quot;&gt;case 3&lt;/span&gt;" style="strokeWidth=2;html=1;shape=mxgraph.flowchart.decision;whiteSpace=wrap;fontStyle=1" parent="1" vertex="1">
          <mxGeometry x="53.94" y="535" width="82.76" height="65" as="geometry" />
        </mxCell>
        <mxCell id="WbgyvdEXmIm0cyRDEVJO-31" value="" style="edgeStyle=orthogonalEdgeStyle;rounded=0;orthogonalLoop=1;jettySize=auto;html=1;" parent="1" source="WbgyvdEXmIm0cyRDEVJO-32" target="WbgyvdEXmIm0cyRDEVJO-58" edge="1">
          <mxGeometry relative="1" as="geometry" />
        </mxCell>
        <mxCell id="WbgyvdEXmIm0cyRDEVJO-32" value="&lt;span style=&quot;font-size: 16px;&quot;&gt;default&lt;/span&gt;" style="strokeWidth=2;html=1;shape=mxgraph.flowchart.decision;whiteSpace=wrap;fontStyle=1" parent="1" vertex="1">
          <mxGeometry x="372.06" y="545" width="100" height="45" as="geometry" />
        </mxCell>
        <mxCell id="WbgyvdEXmIm0cyRDEVJO-33" value="" style="edgeStyle=orthogonalEdgeStyle;rounded=0;orthogonalLoop=1;jettySize=auto;html=1;" parent="1" source="WbgyvdEXmIm0cyRDEVJO-34" target="WbgyvdEXmIm0cyRDEVJO-60" edge="1">
          <mxGeometry relative="1" as="geometry" />
        </mxCell>
        <mxCell id="WbgyvdEXmIm0cyRDEVJO-34" value="&lt;b&gt;hari(Weekend/&lt;/b&gt;&lt;div&gt;&lt;b&gt;Weekday),&lt;span style=&quot;background-color: transparent; color: light-dark(rgb(0, 0, 0), rgb(255, 255, 255));&quot;&gt;durasi bermain,&amp;nbsp;&lt;/span&gt;&lt;/b&gt;&lt;/div&gt;&lt;div&gt;&lt;span style=&quot;background-color: transparent; color: light-dark(rgb(0, 0, 0), rgb(255, 255, 255));&quot;&gt;&lt;b&gt;kaus kaki, status tiket&lt;/b&gt;&lt;/span&gt;&lt;/div&gt;" style="shape=parallelogram;html=1;strokeWidth=2;perimeter=parallelogramPerimeter;whiteSpace=wrap;rounded=1;arcSize=12;size=0.23;" parent="1" vertex="1">
          <mxGeometry x="279" y="295" width="200" height="60" as="geometry" />
        </mxCell>
        <mxCell id="WbgyvdEXmIm0cyRDEVJO-35" value="" style="endArrow=classic;html=1;rounded=0;" parent="1" edge="1">
          <mxGeometry width="50" height="50" relative="1" as="geometry">
            <mxPoint x="289" y="306" as="sourcePoint" />
            <mxPoint x="329" y="306" as="targetPoint" />
          </mxGeometry>
        </mxCell>
        <mxCell id="WbgyvdEXmIm0cyRDEVJO-36" value="Tampilkan daftar tiket&lt;div&gt;&amp;nbsp;yang dipesan&lt;/div&gt;" style="shape=parallelogram;html=1;strokeWidth=2;perimeter=parallelogramPerimeter;whiteSpace=wrap;rounded=1;arcSize=12;size=0.23;fontStyle=1" parent="1" vertex="1">
          <mxGeometry x="292.06" y="413.75" width="211" height="42.5" as="geometry" />
        </mxCell>
        <mxCell id="WbgyvdEXmIm0cyRDEVJO-37" value="" style="endArrow=classic;html=1;rounded=0;" parent="1" edge="1">
          <mxGeometry width="50" height="50" relative="1" as="geometry">
            <mxPoint x="465" y="446" as="sourcePoint" />
            <mxPoint x="505" y="446" as="targetPoint" />
          </mxGeometry>
        </mxCell>
        <mxCell id="WbgyvdEXmIm0cyRDEVJO-57" style="edgeStyle=orthogonalEdgeStyle;rounded=0;orthogonalLoop=1;jettySize=auto;html=1;entryX=1;entryY=0.5;entryDx=0;entryDy=0;" parent="1" source="WbgyvdEXmIm0cyRDEVJO-58" target="WbgyvdEXmIm0cyRDEVJO-5" edge="1">
          <mxGeometry relative="1" as="geometry">
            <mxPoint x="530" y="220" as="targetPoint" />
            <Array as="points">
              <mxPoint x="780" y="570" />
              <mxPoint x="780" y="225" />
            </Array>
          </mxGeometry>
        </mxCell>
        <mxCell id="WbgyvdEXmIm0cyRDEVJO-58" value="&quot;Pilihan tidak valid.&quot;" style="shape=parallelogram;html=1;strokeWidth=2;perimeter=parallelogramPerimeter;whiteSpace=wrap;rounded=1;arcSize=12;size=0.23;fontStyle=1" parent="1" vertex="1">
          <mxGeometry x="503.06" y="547.5" width="240" height="40" as="geometry" />
        </mxCell>
        <mxCell id="WbgyvdEXmIm0cyRDEVJO-59" value="" style="endArrow=classic;html=1;rounded=0;" parent="1" edge="1">
          <mxGeometry width="50" height="50" relative="1" as="geometry">
            <mxPoint x="682.06" y="582" as="sourcePoint" />
            <mxPoint x="722.06" y="582" as="targetPoint" />
          </mxGeometry>
        </mxCell>
        <mxCell id="WbgyvdEXmIm0cyRDEVJO-60" value="&quot;Tiket berhasil ditambahkan&quot;" style="shape=parallelogram;html=1;strokeWidth=2;perimeter=parallelogramPerimeter;whiteSpace=wrap;rounded=1;arcSize=12;size=0.23;fontStyle=1" parent="1" vertex="1">
          <mxGeometry x="489" y="307.5" width="211" height="35" as="geometry" />
        </mxCell>
        <mxCell id="WbgyvdEXmIm0cyRDEVJO-61" value="" style="endArrow=classic;html=1;rounded=0;" parent="1" edge="1">
          <mxGeometry width="50" height="50" relative="1" as="geometry">
            <mxPoint x="645" y="337" as="sourcePoint" />
            <mxPoint x="685" y="337" as="targetPoint" />
          </mxGeometry>
        </mxCell>
        <mxCell id="WbgyvdEXmIm0cyRDEVJO-62" value="" style="endArrow=none;html=1;rounded=0;exitX=1;exitY=0.5;exitDx=0;exitDy=0;" parent="1" source="WbgyvdEXmIm0cyRDEVJO-60" edge="1">
          <mxGeometry width="50" height="50" relative="1" as="geometry">
            <mxPoint x="689" y="330" as="sourcePoint" />
            <mxPoint x="780" y="325" as="targetPoint" />
          </mxGeometry>
        </mxCell>
        <mxCell id="WbgyvdEXmIm0cyRDEVJO-65" value="" style="endArrow=none;html=1;rounded=0;exitX=1;exitY=0.5;exitDx=0;exitDy=0;" parent="1" source="WbgyvdEXmIm0cyRDEVJO-36" edge="1">
          <mxGeometry width="50" height="50" relative="1" as="geometry">
            <mxPoint x="469" y="440" as="sourcePoint" />
            <mxPoint x="780" y="435" as="targetPoint" />
          </mxGeometry>
        </mxCell>
        <mxCell id="WbgyvdEXmIm0cyRDEVJO-66" style="edgeStyle=orthogonalEdgeStyle;rounded=0;orthogonalLoop=1;jettySize=auto;html=1;exitX=0.5;exitY=1;exitDx=0;exitDy=0;" parent="1" source="WbgyvdEXmIm0cyRDEVJO-58" target="WbgyvdEXmIm0cyRDEVJO-58" edge="1">
          <mxGeometry relative="1" as="geometry" />
        </mxCell>
        <mxCell id="WbgyvdEXmIm0cyRDEVJO-67" value="&lt;b&gt;Menu Utama&lt;/b&gt;" style="rounded=1;whiteSpace=wrap;html=1;absoluteArcSize=1;arcSize=14;strokeWidth=2;" parent="1" vertex="1">
          <mxGeometry x="357.06" y="625" width="115" height="40" as="geometry" />
        </mxCell>
        <mxCell id="WbgyvdEXmIm0cyRDEVJO-68" value="" style="edgeStyle=orthogonalEdgeStyle;rounded=0;orthogonalLoop=1;jettySize=auto;html=1;fontStyle=1" parent="1" target="WbgyvdEXmIm0cyRDEVJO-30" edge="1">
          <mxGeometry relative="1" as="geometry">
            <mxPoint x="95.3200000000001" y="479.9999999999998" as="sourcePoint" />
          </mxGeometry>
        </mxCell>
        <mxCell id="WbgyvdEXmIm0cyRDEVJO-69" value="&lt;b&gt;NO&lt;/b&gt;" style="edgeLabel;html=1;align=center;verticalAlign=middle;resizable=0;points=[];" parent="WbgyvdEXmIm0cyRDEVJO-68" vertex="1" connectable="0">
          <mxGeometry x="-0.3797" y="-2" relative="1" as="geometry">
            <mxPoint as="offset" />
          </mxGeometry>
        </mxCell>
        <mxCell id="WbgyvdEXmIm0cyRDEVJO-70" value="NO" style="edgeLabel;html=1;align=center;verticalAlign=middle;resizable=0;points=[];" parent="WbgyvdEXmIm0cyRDEVJO-68" vertex="1" connectable="0">
          <mxGeometry x="-0.3702" y="-3" relative="1" as="geometry">
            <mxPoint as="offset" />
          </mxGeometry>
        </mxCell>
      </root>
    </mxGraphModel>
  </diagram>
  <diagram id="jjyWWM0w4OYKFZI3V0xe" name="Menu Shorting">
    <mxGraphModel dx="803" dy="932" grid="1" gridSize="10" guides="1" tooltips="1" connect="1" arrows="1" fold="1" page="1" pageScale="1" pageWidth="827" pageHeight="1169" math="0" shadow="0">
      <root>
        <mxCell id="0" />
        <mxCell id="1" parent="0" />
        <mxCell id="O7-JqHGJ1HQPOV0FFAPA-1" value="&lt;h1 style=&quot;margin-top: 0px;&quot;&gt;&amp;nbsp;Menu Sorting&lt;/h1&gt;&lt;p&gt;&lt;br&gt;&lt;/p&gt;" style="text;html=1;whiteSpace=wrap;overflow=hidden;rounded=0;fillColor=#B2FFF5;" vertex="1" parent="1">
          <mxGeometry x="360" y="50" width="170" height="40" as="geometry" />
        </mxCell>
        <mxCell id="O7-JqHGJ1HQPOV0FFAPA-2" value="" style="edgeStyle=orthogonalEdgeStyle;rounded=0;orthogonalLoop=1;jettySize=auto;html=1;" edge="1" parent="1" source="O7-JqHGJ1HQPOV0FFAPA-3" target="O7-JqHGJ1HQPOV0FFAPA-10">
          <mxGeometry relative="1" as="geometry" />
        </mxCell>
        <mxCell id="O7-JqHGJ1HQPOV0FFAPA-3" value="C" style="verticalLabelPosition=middle;verticalAlign=middle;html=1;shape=offPageConnector;rounded=0;size=0.5;labelPosition=center;align=center;fontStyle=1" vertex="1" parent="1">
          <mxGeometry x="415" y="130" width="60" height="60" as="geometry" />
        </mxCell>
        <mxCell id="O7-JqHGJ1HQPOV0FFAPA-4" value="" style="edgeStyle=orthogonalEdgeStyle;rounded=0;orthogonalLoop=1;jettySize=auto;html=1;" edge="1" parent="1" source="O7-JqHGJ1HQPOV0FFAPA-8" target="O7-JqHGJ1HQPOV0FFAPA-15">
          <mxGeometry relative="1" as="geometry" />
        </mxCell>
        <mxCell id="O7-JqHGJ1HQPOV0FFAPA-5" value="NO" style="edgeLabel;html=1;align=center;verticalAlign=middle;resizable=0;points=[];" vertex="1" connectable="0" parent="O7-JqHGJ1HQPOV0FFAPA-4">
          <mxGeometry x="-0.0373" y="2" relative="1" as="geometry">
            <mxPoint as="offset" />
          </mxGeometry>
        </mxCell>
        <mxCell id="O7-JqHGJ1HQPOV0FFAPA-6" value="" style="edgeStyle=orthogonalEdgeStyle;rounded=0;orthogonalLoop=1;jettySize=auto;html=1;" edge="1" parent="1" source="O7-JqHGJ1HQPOV0FFAPA-8" target="O7-JqHGJ1HQPOV0FFAPA-27">
          <mxGeometry relative="1" as="geometry" />
        </mxCell>
        <mxCell id="O7-JqHGJ1HQPOV0FFAPA-7" value="YES" style="edgeLabel;html=1;align=center;verticalAlign=middle;resizable=0;points=[];" vertex="1" connectable="0" parent="O7-JqHGJ1HQPOV0FFAPA-6">
          <mxGeometry x="-0.4274" y="1" relative="1" as="geometry">
            <mxPoint as="offset" />
          </mxGeometry>
        </mxCell>
        <mxCell id="O7-JqHGJ1HQPOV0FFAPA-8" value="&lt;b&gt;case 1&lt;/b&gt;" style="strokeWidth=2;html=1;shape=mxgraph.flowchart.decision;whiteSpace=wrap;" vertex="1" parent="1">
          <mxGeometry x="130" y="310" width="90" height="70" as="geometry" />
        </mxCell>
        <mxCell id="O7-JqHGJ1HQPOV0FFAPA-9" value="" style="edgeStyle=orthogonalEdgeStyle;rounded=0;orthogonalLoop=1;jettySize=auto;html=1;" edge="1" parent="1" source="O7-JqHGJ1HQPOV0FFAPA-10" target="O7-JqHGJ1HQPOV0FFAPA-8">
          <mxGeometry relative="1" as="geometry" />
        </mxCell>
        <mxCell id="O7-JqHGJ1HQPOV0FFAPA-10" value="&lt;b&gt;pilih metode sorting(1-4):&lt;/b&gt;" style="shape=parallelogram;html=1;strokeWidth=2;perimeter=parallelogramPerimeter;whiteSpace=wrap;rounded=1;arcSize=12;size=0.23;" vertex="1" parent="1">
          <mxGeometry x="335" y="220" width="220" height="30" as="geometry" />
        </mxCell>
        <mxCell id="O7-JqHGJ1HQPOV0FFAPA-11" value="" style="edgeStyle=orthogonalEdgeStyle;rounded=0;orthogonalLoop=1;jettySize=auto;html=1;" edge="1" parent="1" source="O7-JqHGJ1HQPOV0FFAPA-15" target="O7-JqHGJ1HQPOV0FFAPA-20">
          <mxGeometry relative="1" as="geometry" />
        </mxCell>
        <mxCell id="O7-JqHGJ1HQPOV0FFAPA-12" value="NO" style="edgeLabel;html=1;align=center;verticalAlign=middle;resizable=0;points=[];" vertex="1" connectable="0" parent="O7-JqHGJ1HQPOV0FFAPA-11">
          <mxGeometry x="-0.3314" y="-1" relative="1" as="geometry">
            <mxPoint as="offset" />
          </mxGeometry>
        </mxCell>
        <mxCell id="O7-JqHGJ1HQPOV0FFAPA-13" value="" style="edgeStyle=orthogonalEdgeStyle;rounded=0;orthogonalLoop=1;jettySize=auto;html=1;" edge="1" parent="1" source="O7-JqHGJ1HQPOV0FFAPA-15" target="O7-JqHGJ1HQPOV0FFAPA-29">
          <mxGeometry relative="1" as="geometry" />
        </mxCell>
        <mxCell id="O7-JqHGJ1HQPOV0FFAPA-14" value="YES" style="edgeLabel;html=1;align=center;verticalAlign=middle;resizable=0;points=[];" vertex="1" connectable="0" parent="O7-JqHGJ1HQPOV0FFAPA-13">
          <mxGeometry x="-0.2073" relative="1" as="geometry">
            <mxPoint as="offset" />
          </mxGeometry>
        </mxCell>
        <mxCell id="O7-JqHGJ1HQPOV0FFAPA-15" value="&lt;b&gt;case 2&lt;/b&gt;" style="strokeWidth=2;html=1;shape=mxgraph.flowchart.decision;whiteSpace=wrap;" vertex="1" parent="1">
          <mxGeometry x="130" y="430" width="90" height="70" as="geometry" />
        </mxCell>
        <mxCell id="O7-JqHGJ1HQPOV0FFAPA-16" value="" style="edgeStyle=orthogonalEdgeStyle;rounded=0;orthogonalLoop=1;jettySize=auto;html=1;" edge="1" parent="1" source="O7-JqHGJ1HQPOV0FFAPA-20" target="O7-JqHGJ1HQPOV0FFAPA-25">
          <mxGeometry relative="1" as="geometry" />
        </mxCell>
        <mxCell id="O7-JqHGJ1HQPOV0FFAPA-17" value="NO" style="edgeLabel;html=1;align=center;verticalAlign=middle;resizable=0;points=[];" vertex="1" connectable="0" parent="O7-JqHGJ1HQPOV0FFAPA-16">
          <mxGeometry x="-0.237" y="-3" relative="1" as="geometry">
            <mxPoint as="offset" />
          </mxGeometry>
        </mxCell>
        <mxCell id="O7-JqHGJ1HQPOV0FFAPA-18" value="" style="edgeStyle=orthogonalEdgeStyle;rounded=0;orthogonalLoop=1;jettySize=auto;html=1;" edge="1" parent="1" source="O7-JqHGJ1HQPOV0FFAPA-20" target="O7-JqHGJ1HQPOV0FFAPA-31">
          <mxGeometry relative="1" as="geometry" />
        </mxCell>
        <mxCell id="O7-JqHGJ1HQPOV0FFAPA-19" value="YES" style="edgeLabel;html=1;align=center;verticalAlign=middle;resizable=0;points=[];" vertex="1" connectable="0" parent="O7-JqHGJ1HQPOV0FFAPA-18">
          <mxGeometry x="-0.1547" relative="1" as="geometry">
            <mxPoint as="offset" />
          </mxGeometry>
        </mxCell>
        <mxCell id="O7-JqHGJ1HQPOV0FFAPA-20" value="&lt;b&gt;case 3&lt;/b&gt;" style="strokeWidth=2;html=1;shape=mxgraph.flowchart.decision;whiteSpace=wrap;" vertex="1" parent="1">
          <mxGeometry x="130" y="570" width="90" height="70" as="geometry" />
        </mxCell>
        <mxCell id="O7-JqHGJ1HQPOV0FFAPA-21" value="" style="edgeStyle=orthogonalEdgeStyle;rounded=0;orthogonalLoop=1;jettySize=auto;html=1;" edge="1" parent="1" source="O7-JqHGJ1HQPOV0FFAPA-25" target="O7-JqHGJ1HQPOV0FFAPA-32">
          <mxGeometry relative="1" as="geometry" />
        </mxCell>
        <mxCell id="O7-JqHGJ1HQPOV0FFAPA-22" value="YES" style="edgeLabel;html=1;align=center;verticalAlign=middle;resizable=0;points=[];" vertex="1" connectable="0" parent="O7-JqHGJ1HQPOV0FFAPA-21">
          <mxGeometry x="-0.1761" y="2" relative="1" as="geometry">
            <mxPoint as="offset" />
          </mxGeometry>
        </mxCell>
        <mxCell id="O7-JqHGJ1HQPOV0FFAPA-23" value="" style="edgeStyle=orthogonalEdgeStyle;rounded=0;orthogonalLoop=1;jettySize=auto;html=1;" edge="1" parent="1" source="O7-JqHGJ1HQPOV0FFAPA-25" target="O7-JqHGJ1HQPOV0FFAPA-47">
          <mxGeometry relative="1" as="geometry" />
        </mxCell>
        <mxCell id="O7-JqHGJ1HQPOV0FFAPA-24" value="NO" style="edgeLabel;html=1;align=center;verticalAlign=middle;resizable=0;points=[];" vertex="1" connectable="0" parent="O7-JqHGJ1HQPOV0FFAPA-23">
          <mxGeometry x="-0.0967" y="-2" relative="1" as="geometry">
            <mxPoint as="offset" />
          </mxGeometry>
        </mxCell>
        <mxCell id="O7-JqHGJ1HQPOV0FFAPA-25" value="&lt;b&gt;case 4&lt;/b&gt;" style="strokeWidth=2;html=1;shape=mxgraph.flowchart.decision;whiteSpace=wrap;" vertex="1" parent="1">
          <mxGeometry x="130" y="730" width="90" height="70" as="geometry" />
        </mxCell>
        <mxCell id="O7-JqHGJ1HQPOV0FFAPA-26" value="" style="edgeStyle=orthogonalEdgeStyle;rounded=0;orthogonalLoop=1;jettySize=auto;html=1;" edge="1" parent="1" source="O7-JqHGJ1HQPOV0FFAPA-27" target="O7-JqHGJ1HQPOV0FFAPA-34">
          <mxGeometry relative="1" as="geometry" />
        </mxCell>
        <mxCell id="O7-JqHGJ1HQPOV0FFAPA-27" value="&lt;b&gt;bubleSortHariDesc():&lt;/b&gt;" style="rounded=1;whiteSpace=wrap;html=1;absoluteArcSize=1;arcSize=14;strokeWidth=2;" vertex="1" parent="1">
          <mxGeometry x="270" y="330" width="140" height="30" as="geometry" />
        </mxCell>
        <mxCell id="O7-JqHGJ1HQPOV0FFAPA-28" value="" style="edgeStyle=orthogonalEdgeStyle;rounded=0;orthogonalLoop=1;jettySize=auto;html=1;" edge="1" parent="1" source="O7-JqHGJ1HQPOV0FFAPA-29" target="O7-JqHGJ1HQPOV0FFAPA-37">
          <mxGeometry relative="1" as="geometry" />
        </mxCell>
        <mxCell id="O7-JqHGJ1HQPOV0FFAPA-29" value="&lt;b&gt;selectionSortHargaAsc():&lt;/b&gt;" style="rounded=1;whiteSpace=wrap;html=1;absoluteArcSize=1;arcSize=14;strokeWidth=2;" vertex="1" parent="1">
          <mxGeometry x="275" y="450" width="155" height="30" as="geometry" />
        </mxCell>
        <mxCell id="O7-JqHGJ1HQPOV0FFAPA-30" value="" style="edgeStyle=orthogonalEdgeStyle;rounded=0;orthogonalLoop=1;jettySize=auto;html=1;" edge="1" parent="1" source="O7-JqHGJ1HQPOV0FFAPA-31" target="O7-JqHGJ1HQPOV0FFAPA-40">
          <mxGeometry relative="1" as="geometry" />
        </mxCell>
        <mxCell id="O7-JqHGJ1HQPOV0FFAPA-31" value="&lt;b&gt;insertionSortDurasiAsc():&lt;/b&gt;" style="rounded=1;whiteSpace=wrap;html=1;absoluteArcSize=1;arcSize=14;strokeWidth=2;" vertex="1" parent="1">
          <mxGeometry x="270" y="590" width="160" height="30" as="geometry" />
        </mxCell>
        <mxCell id="O7-JqHGJ1HQPOV0FFAPA-32" value="A" style="verticalLabelPosition=middle;verticalAlign=middle;html=1;shape=offPageConnector;rounded=0;size=0.5;labelPosition=center;align=center;fontStyle=1" vertex="1" parent="1">
          <mxGeometry x="315" y="735" width="60" height="60" as="geometry" />
        </mxCell>
        <mxCell id="O7-JqHGJ1HQPOV0FFAPA-33" value="" style="edgeStyle=orthogonalEdgeStyle;rounded=0;orthogonalLoop=1;jettySize=auto;html=1;" edge="1" parent="1" source="O7-JqHGJ1HQPOV0FFAPA-34" target="O7-JqHGJ1HQPOV0FFAPA-35">
          <mxGeometry relative="1" as="geometry" />
        </mxCell>
        <mxCell id="O7-JqHGJ1HQPOV0FFAPA-34" value="&lt;b&gt;Hasil Sorting Berdasarkan Hari&amp;nbsp;&lt;/b&gt;&lt;div&gt;&lt;b&gt;(weekend -&amp;gt; weekday)&lt;/b&gt;&lt;/div&gt;" style="shape=parallelogram;html=1;strokeWidth=2;perimeter=parallelogramPerimeter;whiteSpace=wrap;rounded=1;arcSize=12;size=0.23;" vertex="1" parent="1">
          <mxGeometry x="470" y="325" width="266" height="40" as="geometry" />
        </mxCell>
        <mxCell id="O7-JqHGJ1HQPOV0FFAPA-35" value="&lt;b&gt;tampilkanTiket():&lt;/b&gt;" style="rounded=1;whiteSpace=wrap;html=1;absoluteArcSize=1;arcSize=14;strokeWidth=2;" vertex="1" parent="1">
          <mxGeometry x="533" y="400" width="140" height="30" as="geometry" />
        </mxCell>
        <mxCell id="O7-JqHGJ1HQPOV0FFAPA-36" value="" style="edgeStyle=orthogonalEdgeStyle;rounded=0;orthogonalLoop=1;jettySize=auto;html=1;" edge="1" parent="1" source="O7-JqHGJ1HQPOV0FFAPA-37" target="O7-JqHGJ1HQPOV0FFAPA-38">
          <mxGeometry relative="1" as="geometry" />
        </mxCell>
        <mxCell id="O7-JqHGJ1HQPOV0FFAPA-37" value="&lt;b&gt;Hasil Sorting Harga&amp;nbsp;&lt;/b&gt;&lt;div&gt;&lt;b&gt;(Termurah -&amp;gt; Termahal)&lt;/b&gt;&lt;/div&gt;" style="shape=parallelogram;html=1;strokeWidth=2;perimeter=parallelogramPerimeter;whiteSpace=wrap;rounded=1;arcSize=12;size=0.23;" vertex="1" parent="1">
          <mxGeometry x="460" y="445" width="266" height="40" as="geometry" />
        </mxCell>
        <mxCell id="O7-JqHGJ1HQPOV0FFAPA-38" value="&lt;b&gt;tampilkanTiket():&lt;/b&gt;" style="rounded=1;whiteSpace=wrap;html=1;absoluteArcSize=1;arcSize=14;strokeWidth=2;" vertex="1" parent="1">
          <mxGeometry x="523" y="525" width="140" height="30" as="geometry" />
        </mxCell>
        <mxCell id="O7-JqHGJ1HQPOV0FFAPA-39" value="" style="edgeStyle=orthogonalEdgeStyle;rounded=0;orthogonalLoop=1;jettySize=auto;html=1;" edge="1" parent="1" source="O7-JqHGJ1HQPOV0FFAPA-40" target="O7-JqHGJ1HQPOV0FFAPA-41">
          <mxGeometry relative="1" as="geometry" />
        </mxCell>
        <mxCell id="O7-JqHGJ1HQPOV0FFAPA-40" value="&lt;b&gt;Hasil Sorting Durasi&lt;/b&gt;&lt;div&gt;&lt;b&gt;(Pendek -&amp;gt; Panjang)&lt;/b&gt;&lt;/div&gt;" style="shape=parallelogram;html=1;strokeWidth=2;perimeter=parallelogramPerimeter;whiteSpace=wrap;rounded=1;arcSize=12;size=0.23;" vertex="1" parent="1">
          <mxGeometry x="450" y="585" width="266" height="40" as="geometry" />
        </mxCell>
        <mxCell id="O7-JqHGJ1HQPOV0FFAPA-41" value="&lt;b&gt;tampilkanTiket():&lt;/b&gt;" style="rounded=1;whiteSpace=wrap;html=1;absoluteArcSize=1;arcSize=14;strokeWidth=2;" vertex="1" parent="1">
          <mxGeometry x="513" y="665" width="140" height="30" as="geometry" />
        </mxCell>
        <mxCell id="O7-JqHGJ1HQPOV0FFAPA-42" value="" style="endArrow=classic;html=1;rounded=0;" edge="1" parent="1">
          <mxGeometry width="50" height="50" relative="1" as="geometry">
            <mxPoint x="503" y="245.29" as="sourcePoint" />
            <mxPoint x="533" y="245.29" as="targetPoint" />
          </mxGeometry>
        </mxCell>
        <mxCell id="O7-JqHGJ1HQPOV0FFAPA-43" value="" style="endArrow=classic;html=1;rounded=0;" edge="1" parent="1">
          <mxGeometry width="50" height="50" relative="1" as="geometry">
            <mxPoint x="680" y="357.64" as="sourcePoint" />
            <mxPoint x="710" y="357.64" as="targetPoint" />
          </mxGeometry>
        </mxCell>
        <mxCell id="O7-JqHGJ1HQPOV0FFAPA-44" value="" style="endArrow=classic;html=1;rounded=0;" edge="1" parent="1">
          <mxGeometry width="50" height="50" relative="1" as="geometry">
            <mxPoint x="663" y="480" as="sourcePoint" />
            <mxPoint x="693" y="480" as="targetPoint" />
          </mxGeometry>
        </mxCell>
        <mxCell id="O7-JqHGJ1HQPOV0FFAPA-45" value="" style="endArrow=classic;html=1;rounded=0;" edge="1" parent="1">
          <mxGeometry width="50" height="50" relative="1" as="geometry">
            <mxPoint x="663" y="620" as="sourcePoint" />
            <mxPoint x="693" y="620" as="targetPoint" />
          </mxGeometry>
        </mxCell>
        <mxCell id="O7-JqHGJ1HQPOV0FFAPA-46" value="" style="edgeStyle=orthogonalEdgeStyle;rounded=0;orthogonalLoop=1;jettySize=auto;html=1;" edge="1" parent="1" source="O7-JqHGJ1HQPOV0FFAPA-47" target="O7-JqHGJ1HQPOV0FFAPA-49">
          <mxGeometry relative="1" as="geometry" />
        </mxCell>
        <mxCell id="O7-JqHGJ1HQPOV0FFAPA-47" value="default&amp;nbsp;" style="strokeWidth=2;html=1;shape=mxgraph.flowchart.decision;whiteSpace=wrap;" vertex="1" parent="1">
          <mxGeometry x="125" y="840" width="100" height="50" as="geometry" />
        </mxCell>
        <mxCell id="O7-JqHGJ1HQPOV0FFAPA-48" style="edgeStyle=orthogonalEdgeStyle;rounded=0;orthogonalLoop=1;jettySize=auto;html=1;entryX=1;entryY=0.5;entryDx=0;entryDy=0;" edge="1" parent="1" source="O7-JqHGJ1HQPOV0FFAPA-49" target="O7-JqHGJ1HQPOV0FFAPA-10">
          <mxGeometry relative="1" as="geometry">
            <mxPoint x="750" y="223.14287458147322" as="targetPoint" />
            <Array as="points">
              <mxPoint x="770" y="865" />
              <mxPoint x="770" y="235" />
            </Array>
          </mxGeometry>
        </mxCell>
        <mxCell id="O7-JqHGJ1HQPOV0FFAPA-49" value="&lt;b&gt;&quot;Pilihan tidak valid.&quot;&lt;/b&gt;" style="shape=parallelogram;html=1;strokeWidth=2;perimeter=parallelogramPerimeter;whiteSpace=wrap;rounded=1;arcSize=12;size=0.23;" vertex="1" parent="1">
          <mxGeometry x="270" y="850" width="220" height="30" as="geometry" />
        </mxCell>
        <mxCell id="O7-JqHGJ1HQPOV0FFAPA-50" value="" style="endArrow=classic;html=1;rounded=0;" edge="1" parent="1">
          <mxGeometry width="50" height="50" relative="1" as="geometry">
            <mxPoint x="444" y="875.7099999999999" as="sourcePoint" />
            <mxPoint x="474" y="875.7099999999999" as="targetPoint" />
          </mxGeometry>
        </mxCell>
      </root>
    </mxGraphModel>
  </diagram>
</mxfile>
